<?xml version="1.0" encoding="UTF-8"?>
<!DOCTYPE svg PUBLIC "-//W3C//DTD SVG 1.1//EN" "http://www.w3.org/Graphics/SVG/1.1/DTD/svg11.dtd">
<svg xmlns="http://www.w3.org/2000/svg" version="1.1" width="457px" height="379px" style="shape-rendering:geometricPrecision; text-rendering:geometricPrecision; image-rendering:optimizeQuality; fill-rule:evenodd; clip-rule:evenodd" xmlns:xlink="http://www.w3.org/1999/xlink">
<g><path style="opacity:0.431" fill="#303841" d="M 338.5,-0.5 C 342.5,-0.5 346.5,-0.5 350.5,-0.5C 369.237,7.41 382.071,21.0767 389,40.5C 392.885,48.5642 393.885,56.8975 392,65.5C 391.167,66.3333 390.333,67.1667 389.5,68C 362.5,68.6667 335.5,68.6667 308.5,68C 307.299,67.0975 306.465,65.9308 306,64.5C 306.808,44.7435 312.808,26.7435 324,10.5C 327.906,5.40438 332.739,1.73772 338.5,-0.5 Z"/></g>
<g><path style="opacity:1" fill="#e8e0c9" d="M 338.5,1.5 C 349.543,0.569939 359.209,3.73661 367.5,11C 380.778,23.8879 388.778,39.5546 391.5,58C 391.665,60.9165 390.998,63.5832 389.5,66C 376.091,67.1498 362.591,67.6498 349,67.5C 336.167,67.3333 323.333,67.1667 310.5,67C 308.99,65.6487 307.99,63.982 307.5,62C 308.239,57.8726 308.739,53.706 309,49.5C 312.04,32.9194 319.207,18.4194 330.5,6C 333.099,4.20496 335.766,2.70496 338.5,1.5 Z"/></g>
<g><path style="opacity:0.386" fill="#313943" d="M 104.5,-0.5 C 108.5,-0.5 112.5,-0.5 116.5,-0.5C 128.295,5.47396 136.462,14.8073 141,27.5C 146.212,39.6747 148.879,52.3413 149,65.5C 148.167,66.3333 147.333,67.1667 146.5,68C 119.833,68.6667 93.1667,68.6667 66.5,68C 65.5838,67.6258 64.7504,67.1258 64,66.5C 63.04,64.0197 62.2066,61.5197 61.5,59C 64.6868,37.9514 74.3534,20.6181 90.5,7C 94.815,3.67822 99.4816,1.17822 104.5,-0.5 Z"/></g>
<g><path style="opacity:1" fill="#e8e0c9" d="M 105.5,1.5 C 118.45,0.604341 127.95,5.93767 134,17.5C 141.482,30.2818 145.982,44.1151 147.5,59C 147.665,61.9165 146.998,64.5832 145.5,67C 119.5,67.6667 93.5,67.6667 67.5,67C 64.4549,64.8994 63.1216,61.8994 63.5,58C 66.537,38.3169 75.537,21.9836 90.5,9C 95.1516,5.62763 100.152,3.12763 105.5,1.5 Z"/></g>
<g><path style="opacity:1" fill="#d4d3c8" d="M 151.5,78.5 C 151.5,79.8333 151.5,81.1667 151.5,82.5C 150.566,81.4324 150.232,80.099 150.5,78.5C 132.5,78.5 114.5,78.5 96.5,78.5C 96.5,78.1667 96.5,77.8333 96.5,77.5C 114.329,76.338 132.329,76.1713 150.5,77C 151.056,77.3826 151.389,77.8826 151.5,78.5 Z"/></g>
<g><path style="opacity:0.32" fill="#efefec" d="M 397.5,91.5 C 386.632,85.2649 374.965,81.0982 362.5,79C 343.503,78.5001 324.503,78.3334 305.5,78.5C 305.5,79.8333 305.5,81.1667 305.5,82.5C 254.167,82.5 202.833,82.5 151.5,82.5C 151.5,81.1667 151.5,79.8333 151.5,78.5C 152.404,79.209 152.737,80.209 152.5,81.5C 202.833,81.5 253.167,81.5 303.5,81.5C 303.297,79.6096 303.963,78.1096 305.5,77C 324.167,76.3333 342.833,76.3333 361.5,77C 373.933,79.0882 385.599,83.2548 396.5,89.5C 397.298,89.9569 397.631,90.6236 397.5,91.5 Z"/></g>
<g><path style="opacity:1" fill="#c3b89b" d="M 94.5,83.5 C 90.9661,83.9244 87.4661,84.5911 84,85.5C 79.4757,84.4307 79.6424,83.264 84.5,82C 84.2716,81.6012 83.9382,81.4346 83.5,81.5C 83.8417,80.6618 84.5084,80.3284 85.5,80.5C 85.9169,81.1239 86.5836,81.4573 87.5,81.5C 89.8193,80.9361 92.1526,80.4361 94.5,80C 112.164,79.5001 129.83,79.3334 147.5,79.5C 147.5,80.8333 147.5,82.1667 147.5,83.5C 129.833,83.5 112.167,83.5 94.5,83.5 Z"/></g>
<g><path style="opacity:1" fill="#5b442a" d="M 96.5,78.5 C 114.5,78.5 132.5,78.5 150.5,78.5C 150.232,80.099 150.566,81.4324 151.5,82.5C 202.5,83.1667 253.5,83.8333 304.5,84.5C 234.331,84.8325 164.331,84.4992 94.5,83.5C 112.167,83.5 129.833,83.5 147.5,83.5C 147.5,82.1667 147.5,80.8333 147.5,79.5C 129.83,79.3334 112.164,79.5001 94.5,80C 92.1526,80.4361 89.8193,80.9361 87.5,81.5C 86.5836,81.4573 85.9169,81.1239 85.5,80.5C 89.1119,79.5778 92.7785,78.9111 96.5,78.5 Z"/></g>
<g><path style="opacity:1" fill="#9c8d72" d="M 83.5,81.5 C 83.9382,81.4346 84.2716,81.6012 84.5,82C 79.6424,83.264 79.4757,84.4307 84,85.5C 87.4661,84.5911 90.9661,83.9244 94.5,83.5C 164.331,84.4992 234.331,84.8325 304.5,84.5C 323.674,84.8303 342.674,84.497 361.5,83.5C 363.099,83.2322 364.432,83.5655 365.5,84.5C 364.448,84.3505 363.448,84.5172 362.5,85C 365.529,85.539 368.529,86.2057 371.5,87C 372.056,87.3826 372.389,87.8826 372.5,88.5C 367.16,87.7768 361.827,86.9435 356.5,86C 288.167,85.5 219.834,85.3333 151.5,85.5C 132.164,85.3334 112.83,85.5 93.5,86C 86.6653,87.3355 79.9986,89.1688 73.5,91.5C 76.4374,89.3445 79.7708,87.8445 83.5,87C 82.552,86.5172 81.552,86.3505 80.5,86.5C 80.0269,85.0937 79.0269,84.427 77.5,84.5C 77.5,83.8333 77.1667,83.5 76.5,83.5C 78.5145,82.0762 80.8478,81.4095 83.5,81.5 Z"/></g>
<g><path style="opacity:1" fill="#c2b799" d="M 77.5,84.5 C 79.0269,84.427 80.0269,85.0937 80.5,86.5C 74.3837,88.4861 68.5504,91.1527 63,94.5C 61.2056,92.536 61.7056,91.036 64.5,90C 68.6535,87.6732 72.9868,85.8399 77.5,84.5 Z"/></g>
<g><path style="opacity:1" fill="#efe9d2" d="M 151.5,85.5 C 219.332,86.3329 287.332,86.8329 355.5,87C 346.338,87.0278 337.338,87.6945 328.5,89C 334.255,88.9279 339.755,88.7612 345,88.5C 346.396,90.5268 348.062,90.8602 350,89.5C 351.734,90.2489 353.567,90.7489 355.5,91C 350.492,91.8693 350.825,92.5359 356.5,93C 355.552,93.4828 354.552,93.6495 353.5,93.5C 339.5,93.5 325.5,93.5 311.5,93.5C 240.331,93.1675 169.331,93.5008 98.5,94.5C 92.7883,94.7764 87.455,96.1097 82.5,98.5C 77.9831,99.0966 73.9831,100.763 70.5,103.5C 68.4816,104.623 66.4816,104.623 64.5,103.5C 62.8306,104.89 61.1639,105.223 59.5,104.5C 58.6143,105.325 58.281,106.325 58.5,107.5C 57.1667,107.5 55.8333,107.5 54.5,107.5C 54.5875,110.598 54.0875,110.932 53,108.5C 44.3068,116.618 36.6402,126.284 30,137.5C 24.6491,152.51 21.4825,167.843 20.5,183.5C 19.7403,177.196 19.407,170.863 19.5,164.5C 20.404,163.791 20.7373,162.791 20.5,161.5C 23.7542,137.647 34.7542,118.314 53.5,103.5C 59.9269,99.0672 66.5936,95.0672 73.5,91.5C 79.9986,89.1688 86.6653,87.3355 93.5,86C 112.83,85.5 132.164,85.3334 151.5,85.5 Z"/></g>
<g><path style="opacity:1" fill="#9c8e73" d="M 372.5,88.5 C 379.546,89.6271 386.213,91.9604 392.5,95.5C 393.298,95.9569 393.631,96.6236 393.5,97.5C 386.548,94.1854 379.548,91.1854 372.5,88.5 Z"/></g>
<g><path style="opacity:1" fill="#847459" d="M 397.5,91.5 C 397.5,91.8333 397.5,92.1667 397.5,92.5C 396.402,93.6009 396.235,94.9343 397,96.5C 398.518,97.1634 399.685,98.1634 400.5,99.5C 398.254,98.5448 395.921,97.8782 393.5,97.5C 393.631,96.6236 393.298,95.9569 392.5,95.5C 386.213,91.9604 379.546,89.6271 372.5,88.5C 372.389,87.8826 372.056,87.3826 371.5,87C 368.529,86.2057 365.529,85.539 362.5,85C 363.448,84.5172 364.448,84.3505 365.5,84.5C 371.979,85.5476 378.313,87.2142 384.5,89.5C 386.373,89.5177 386.706,89.0177 385.5,88C 377.492,84.3307 369.159,81.664 360.5,80C 342.836,79.5001 325.17,79.3334 307.5,79.5C 307.33,80.8221 307.663,81.9887 308.5,83C 326.164,83.4999 343.83,83.6666 361.5,83.5C 342.674,84.497 323.674,84.8303 304.5,84.5C 253.5,83.8333 202.5,83.1667 151.5,82.5C 202.833,82.5 254.167,82.5 305.5,82.5C 305.5,81.1667 305.5,79.8333 305.5,78.5C 324.503,78.3334 343.503,78.5001 362.5,79C 374.965,81.0982 386.632,85.2649 397.5,91.5 Z"/></g>
<g><path style="opacity:1" fill="#beb394" d="M 365.5,84.5 C 364.432,83.5655 363.099,83.2322 361.5,83.5C 343.83,83.6666 326.164,83.4999 308.5,83C 307.663,81.9887 307.33,80.8221 307.5,79.5C 325.17,79.3334 342.836,79.5001 360.5,80C 369.159,81.664 377.492,84.3307 385.5,88C 386.706,89.0177 386.373,89.5177 384.5,89.5C 378.313,87.2142 371.979,85.5476 365.5,84.5 Z"/></g>
<g><path style="opacity:1" fill="#79694c" d="M 76.5,83.5 C 77.1667,83.5 77.5,83.8333 77.5,84.5C 72.9868,85.8399 68.6535,87.6732 64.5,90C 61.7056,91.036 61.2056,92.536 63,94.5C 68.5504,91.1527 74.3837,88.4861 80.5,86.5C 81.552,86.3505 82.552,86.5172 83.5,87C 79.7708,87.8445 76.4374,89.3445 73.5,91.5C 66.5936,95.0672 59.9269,99.0672 53.5,103.5C 52.448,103.351 51.448,103.517 50.5,104C 48.8863,106.127 46.8863,107.627 44.5,108.5C 48.8017,103.922 53.6351,99.9222 59,96.5C 59.2511,94.567 59.7511,92.7337 60.5,91C 65.4627,87.685 70.7961,85.185 76.5,83.5 Z"/></g>
<g><path style="opacity:1" fill="#968a78" d="M 311.5,93.5 C 325.5,93.5 339.5,93.5 353.5,93.5C 362.338,94.4405 371.005,96.6072 379.5,100C 373.582,98.7034 367.582,97.3701 361.5,96C 358.183,95.5017 354.85,95.335 351.5,95.5C 338.167,94.8333 324.833,94.1667 311.5,93.5 Z"/></g>
<g><path style="opacity:1" fill="#8d8069" d="M 98.5,94.5 C 124.005,94.1689 149.339,94.5023 174.5,95.5C 148.498,95.3334 122.498,95.5 96.5,96C 91.8564,97.029 87.1897,97.8623 82.5,98.5C 87.455,96.1097 92.7883,94.7764 98.5,94.5 Z"/></g>
<g><path style="opacity:1" fill="#beb7a5" d="M 98.5,94.5 C 169.331,93.5008 240.331,93.1675 311.5,93.5C 324.833,94.1667 338.167,94.8333 351.5,95.5C 292.5,95.5 233.5,95.5 174.5,95.5C 149.339,94.5023 124.005,94.1689 98.5,94.5 Z"/></g>
<g><path style="opacity:1" fill="#e9e1cb" d="M 151.5,85.5 C 219.834,85.3333 288.167,85.5 356.5,86C 361.827,86.9435 367.16,87.7768 372.5,88.5C 379.548,91.1854 386.548,94.1854 393.5,97.5C 419.782,113.698 434.115,137.365 436.5,168.5C 437.09,192.401 429.757,213.401 414.5,231.5C 392.284,254.185 365.284,263.685 333.5,260C 328.209,258.849 323.209,257.015 318.5,254.5C 320.188,252.146 322.188,250.146 324.5,248.5C 325.167,248.5 325.833,248.5 326.5,248.5C 337.616,225.809 333.616,206.309 314.5,190C 297.475,180.483 281.141,181.483 265.5,193C 262.152,195.501 259.818,198.668 258.5,202.5C 255.585,205.99 253.418,209.99 252,214.5C 251.057,222.147 251.557,229.647 253.5,237C 236.662,237.828 219.995,237.662 203.5,236.5C 208.233,213.5 200.233,196.667 179.5,186C 168.653,182.345 157.986,182.678 147.5,187C 161.712,182.459 175.045,184.292 187.5,192.5C 188.696,195.543 190.53,198.209 193,200.5C 196.248,208.192 197.248,216.192 196,224.5C 195.426,227.319 194.093,229.652 192,231.5C 191.5,231.333 191,231.167 190.5,231C 191.38,229.644 191.714,228.144 191.5,226.5C 191.888,202.722 180.222,191.889 156.5,194C 137.585,202.656 132.251,216.489 140.5,235.5C 140.631,236.239 140.464,236.906 140,237.5C 130.048,224.956 128.881,211.623 136.5,197.5C 138.294,195.203 140.294,193.037 142.5,191C 132.205,197.033 126.038,206.2 124,218.5C 123.021,228.582 125.187,237.915 130.5,246.5C 130.137,247.183 129.804,247.85 129.5,248.5C 132.937,249.244 135.603,251.244 137.5,254.5C 95.5011,267.389 61.1678,256.389 34.5,221.5C 27.0349,209.896 22.3683,197.229 20.5,183.5C 21.4825,167.843 24.6491,152.51 30,137.5C 36.6402,126.284 44.3068,116.618 53,108.5C 54.0875,110.932 54.5875,110.598 54.5,107.5C 55.8333,107.5 57.1667,107.5 58.5,107.5C 58.281,106.325 58.6143,105.325 59.5,104.5C 61.1639,105.223 62.8306,104.89 64.5,103.5C 66.4816,104.623 68.4816,104.623 70.5,103.5C 71.8734,103.657 73.2068,103.49 74.5,103C 77.1915,101.395 79.8582,99.8952 82.5,98.5C 87.1897,97.8623 91.8564,97.029 96.5,96C 122.498,95.5 148.498,95.3334 174.5,95.5C 233.5,95.5 292.5,95.5 351.5,95.5C 354.85,95.335 358.183,95.5017 361.5,96C 367.582,97.3701 373.582,98.7034 379.5,100C 371.005,96.6072 362.338,94.4405 353.5,93.5C 354.552,93.6495 355.552,93.4828 356.5,93C 350.825,92.5359 350.492,91.8693 355.5,91C 353.567,90.7489 351.734,90.2489 350,89.5C 348.062,90.8602 346.396,90.5268 345,88.5C 339.755,88.7612 334.255,88.9279 328.5,89C 337.338,87.6945 346.338,87.0278 355.5,87C 287.332,86.8329 219.332,86.3329 151.5,85.5 Z"/></g>
<g><path style="opacity:1" fill="#a0937c" d="M 82.5,98.5 C 79.8582,99.8952 77.1915,101.395 74.5,103C 73.2068,103.49 71.8734,103.657 70.5,103.5C 73.9831,100.763 77.9831,99.0966 82.5,98.5 Z"/></g>
<g><path style="opacity:1" fill="#160e08" d="M 102.5,107.5 C 105.3,109.476 104.967,110.309 101.5,110C 102.252,109.329 102.586,108.496 102.5,107.5 Z"/></g>
<g><path style="opacity:1" fill="#4d1c19" d="M 349.5,107.5 C 354.435,105.663 358.769,106.663 362.5,110.5C 361.391,110.443 360.391,110.11 359.5,109.5C 356.448,107.822 353.115,107.155 349.5,107.5 Z"/></g>
<g><path style="opacity:1" fill="#d15457" d="M 349.5,107.5 C 353.115,107.155 356.448,107.822 359.5,109.5C 361.192,111.205 362.525,113.205 363.5,115.5C 356.746,122.709 348.413,126.376 338.5,126.5C 338.5,124.5 338.5,122.5 338.5,120.5C 339.32,118.188 340.153,115.854 341,113.5C 342.812,111.7 344.645,110.033 346.5,108.5C 347.209,107.596 348.209,107.263 349.5,107.5 Z"/></g>
<g><path style="opacity:1" fill="#7a7064" d="M 329.5,108.5 C 330.625,107.986 331.791,107.653 333,107.5C 332.529,110.126 332.529,112.793 333,115.5C 332,112.833 331,112.833 330,115.5C 330.412,113.005 330.245,110.671 329.5,108.5 Z"/></g>
<g><path style="opacity:1" fill="#515176" d="M 194.5,115.5 C 194.5,118.167 194.5,120.833 194.5,123.5C 192.99,124.728 191.49,124.728 190,123.5C 190.255,120.918 190.422,118.252 190.5,115.5C 191.833,115.5 193.167,115.5 194.5,115.5 Z"/></g>
<g><path style="opacity:1" fill="#bfbcb3" d="M 191.5,116.5 C 193.337,116.639 193.67,117.306 192.5,118.5C 191.702,118.043 191.369,117.376 191.5,116.5 Z"/></g>
<g><path style="opacity:1" fill="#3b406b" d="M 195.5,115.5 C 197.167,115.5 198.833,115.5 200.5,115.5C 200.5,118.167 200.5,120.833 200.5,123.5C 199.206,119.777 198.039,119.777 197,123.5C 196.728,120.746 196.228,118.079 195.5,115.5 Z"/></g>
<g><path style="opacity:1" fill="#9e917a" d="M 56.5,111.5 C 57.2389,111.369 57.9056,111.536 58.5,112C 54.6667,115.833 50.8333,119.667 47,123.5C 46.3333,122.833 46.3333,122.167 47,121.5C 50.3709,118.297 53.5375,114.964 56.5,111.5 Z"/></g>
<g><path style="opacity:1" fill="#b02c32" d="M 363.5,115.5 C 365.293,118.259 365.793,121.259 365,124.5C 362.96,127.71 361.127,131.043 359.5,134.5C 357.38,135.891 355.047,136.558 352.5,136.5C 348.309,135.737 344.309,134.404 340.5,132.5C 339.974,130.77 338.974,129.436 337.5,128.5C 337.5,127.833 337.5,127.167 337.5,126.5C 337.205,124.265 337.539,122.265 338.5,120.5C 338.5,122.5 338.5,124.5 338.5,126.5C 348.413,126.376 356.746,122.709 363.5,115.5 Z"/></g>
<g><path style="opacity:1" fill="#98989a" d="M 194.5,115.5 C 194.833,115.5 195.167,115.5 195.5,115.5C 196.228,118.079 196.728,120.746 197,123.5C 198.039,119.777 199.206,119.777 200.5,123.5C 198.611,124.742 196.611,124.742 194.5,123.5C 194.5,120.833 194.5,118.167 194.5,115.5 Z"/></g>
<g><path style="opacity:1" fill="#541717" d="M 346.5,108.5 C 344.645,110.033 342.812,111.7 341,113.5C 340.153,115.854 339.32,118.188 338.5,120.5C 337.539,122.265 337.205,124.265 337.5,126.5C 335.873,121.573 336.707,116.907 340,112.5C 341.638,110.266 343.805,108.933 346.5,108.5 Z"/></g>
<g><path style="opacity:1" fill="#737188" d="M 217.5,117.5 C 219.722,117.559 220.722,118.725 220.5,121C 219.167,125.667 217.833,125.667 216.5,121C 216.648,119.744 216.982,118.577 217.5,117.5 Z"/></g>
<g><path style="opacity:1" fill="#34406a" d="M 243.5,114.5 C 248.159,114.015 249.492,115.848 247.5,120C 246.552,120.483 245.552,120.649 244.5,120.5C 243.223,121.317 242.89,119.317 243.5,114.5 Z"/></g>
<g><path style="opacity:1" fill="#aaa9a5" d="M 244.5,116.5 C 247.957,116.667 248.29,117.667 245.5,119.5C 244.614,118.675 244.281,117.675 244.5,116.5 Z"/></g>
<g><path style="opacity:1" fill="#2a3a66" d="M 249.5,117.5 C 250.552,117.351 251.552,117.517 252.5,118C 250.996,119.491 250.163,121.324 250,123.5C 249.505,121.527 249.338,119.527 249.5,117.5 Z"/></g>
<g><path style="opacity:1" fill="#907f65" d="M 393.5,97.5 C 395.921,97.8782 398.254,98.5448 400.5,99.5C 412.481,106.649 421.981,116.315 429,128.5C 435.448,139.286 439.281,150.952 440.5,163.5C 439.678,161.611 438.845,159.611 438,157.5C 437.823,161.356 437.323,165.023 436.5,168.5C 434.115,137.365 419.782,113.698 393.5,97.5 Z"/></g>
<g><path style="opacity:1" fill="#62647f" d="M 254.5,117.5 C 255.552,117.351 256.552,117.517 257.5,118C 255.503,119.153 255.17,120.653 256.5,122.5C 258.002,118.626 258.669,118.959 258.5,123.5C 256.833,123.5 255.167,123.5 253.5,123.5C 253.325,121.379 253.659,119.379 254.5,117.5 Z"/></g>
<g><path style="opacity:1" fill="#464c72" d="M 262.5,115.5 C 263.833,115.5 265.167,115.5 266.5,115.5C 266.896,118.044 266.229,120.211 264.5,122C 267.063,122.763 267.063,123.263 264.5,123.5C 263.833,123.167 263.167,122.833 262.5,122.5C 263.711,121.126 264.711,119.626 265.5,118C 265.167,117.5 264.833,117 264.5,116.5C 262.114,117.988 261.448,117.655 262.5,115.5 Z"/></g>
<g><path style="opacity:1" fill="#7f7b8e" d="M 200.5,115.5 C 202.554,115.365 204.221,116.032 205.5,117.5C 205.201,119.604 205.534,121.604 206.5,123.5C 207.107,123.376 207.44,123.043 207.5,122.5C 209.344,120.721 210.01,118.388 209.5,115.5C 211.144,115.286 212.644,115.62 214,116.5C 214.769,119.099 214.602,121.599 213.5,124C 209.08,124.768 204.747,124.602 200.5,123.5C 200.5,120.833 200.5,118.167 200.5,115.5 Z"/></g>
<g><path style="opacity:1" fill="#4a5371" d="M 202.5,118.5 C 203.649,118.791 204.316,119.624 204.5,121C 204.167,121.833 203.833,122.667 203.5,123.5C 202.548,121.955 202.215,120.288 202.5,118.5 Z"/></g>
<g><path style="opacity:1" fill="#344067" d="M 207.5,122.5 C 207.44,123.043 207.107,123.376 206.5,123.5C 205.534,121.604 205.201,119.604 205.5,117.5C 206.117,117.389 206.617,117.056 207,116.5C 207.495,118.473 207.662,120.473 207.5,122.5 Z"/></g>
<g><path style="opacity:1" fill="#adaaa0" d="M 189.5,128.5 C 215.175,128.167 240.842,128.5 266.5,129.5C 253.667,129.833 240.833,130.167 228,130.5C 214.815,130.499 201.982,129.833 189.5,128.5 Z"/></g>
<g><path style="opacity:1" fill="#292423" d="M 92.5,117.5 C 99.8409,117.334 107.174,117.5 114.5,118C 115,118.5 115.5,119 116,119.5C 116.333,126.5 116.667,133.5 117,140.5C 124.087,141.315 131.253,141.815 138.5,142C 139,142.5 139.5,143 140,143.5C 140.667,150.833 140.667,158.167 140,165.5C 139.167,166.333 138.333,167.167 137.5,168C 130.833,168.333 124.167,168.667 117.5,169C 116.687,175.419 116.187,181.919 116,188.5C 115.5,189 115,189.5 114.5,190C 106.812,190.831 99.145,190.665 91.5,189.5C 90.8506,182.636 90.1839,175.802 89.5,169C 82.8333,168.667 76.1667,168.333 69.5,168C 68.6667,167.167 67.8333,166.333 67,165.5C 66.3333,158.167 66.3333,150.833 67,143.5C 67.5,143 68,142.5 68.5,142C 75.7466,141.815 82.9133,141.315 90,140.5C 90.3333,133.5 90.6667,126.5 91,119.5C 91.7172,118.956 92.2172,118.289 92.5,117.5 Z"/></g>
<g><path style="opacity:1" fill="#9b2a2d" d="M 359.5,109.5 C 360.391,110.11 361.391,110.443 362.5,110.5C 364.017,110.511 365.184,111.177 366,112.5C 369.933,118.358 370.433,124.358 367.5,130.5C 361.071,138.605 353.071,140.439 343.5,136C 342.29,134.961 341.29,133.794 340.5,132.5C 344.309,134.404 348.309,135.737 352.5,136.5C 355.047,136.558 357.38,135.891 359.5,134.5C 361.127,131.043 362.96,127.71 365,124.5C 365.793,121.259 365.293,118.259 363.5,115.5C 362.525,113.205 361.192,111.205 359.5,109.5 Z"/></g>
<g><path style="opacity:1" fill="#67523d" d="M 28.5,128.5 C 27.0078,132.818 25.0078,136.818 22.5,140.5C 23.4598,135.914 25.4598,131.914 28.5,128.5 Z"/></g>
<g><path style="opacity:0.2" fill="#efece8" d="M 397.5,92.5 C 398.014,93.6246 398.347,94.7913 398.5,96C 416.366,106.893 429.199,122.06 437,141.5C 440.558,152.957 443.225,164.624 445,176.5C 447.974,196.151 450.807,215.818 453.5,235.5C 453.457,236.416 453.124,237.083 452.5,237.5C 450.932,228.667 449.599,219.667 448.5,210.5C 448.768,208.901 448.434,207.568 447.5,206.5C 446.593,198.82 445.593,191.153 444.5,183.5C 443.485,176.644 442.152,169.977 440.5,163.5C 439.281,150.952 435.448,139.286 429,128.5C 421.981,116.315 412.481,106.649 400.5,99.5C 399.685,98.1634 398.518,97.1634 397,96.5C 396.235,94.9343 396.402,93.6009 397.5,92.5 Z"/></g>
<g><path style="opacity:1" fill="#bcac93" d="M 339.5,134.5 C 348.469,142.423 357.469,142.423 366.5,134.5C 363.872,140.073 359.372,142.74 353,142.5C 346.628,142.74 342.128,140.073 339.5,134.5 Z"/></g>
<g><path style="opacity:1" fill="#5a231e" d="M 337.5,128.5 C 338.974,129.436 339.974,130.77 340.5,132.5C 341.29,133.794 342.29,134.961 343.5,136C 353.071,140.439 361.071,138.605 367.5,130.5C 367.167,131.833 366.833,133.167 366.5,134.5C 357.469,142.423 348.469,142.423 339.5,134.5C 338.833,132.5 338.167,130.5 337.5,128.5 Z"/></g>
<g><path style="opacity:1" fill="#9f8b6c" d="M 273.5,153.5 C 272.391,153.557 271.391,153.89 270.5,154.5C 270.856,149.048 268.523,145.215 263.5,143C 240.167,142.333 216.833,142.333 193.5,143C 188.543,144.744 185.876,148.244 185.5,153.5C 184.5,153.5 183.5,153.5 182.5,153.5C 182.468,147.396 185.135,142.896 190.5,140C 215.5,139.333 240.5,139.333 265.5,140C 271.298,142.634 273.964,147.134 273.5,153.5 Z"/></g>
<g><path style="opacity:1" fill="#a99b82" d="M 419.5,138.5 C 427.085,152.851 429.585,168.184 427,184.5C 426.133,189.637 424.799,194.637 423,199.5C 423.977,193.568 424.977,187.568 426,181.5C 427.388,166.611 425.221,152.278 419.5,138.5 Z"/></g>
<g><path style="opacity:1" fill="#80776a" d="M 294.5,138.5 C 295.975,139.262 297.309,139.595 298.5,139.5C 296.832,147.201 295.498,146.868 294.5,138.5 Z"/></g>
<g><path style="opacity:1" fill="#d25357" d="M 398.5,144.5 C 396.779,149.391 393.446,152.891 388.5,155C 383.705,157.033 378.705,157.866 373.5,157.5C 373.423,153.785 373.756,150.119 374.5,146.5C 376.833,144.833 378.833,142.833 380.5,140.5C 387.281,138.407 393.281,139.74 398.5,144.5 Z"/></g>
<g><path style="opacity:1" fill="#46211d" d="M 309.5,140.5 C 308.167,142.5 306.5,144.167 304.5,145.5C 305.167,142.833 306.833,141.167 309.5,140.5 Z"/></g>
<g><path style="opacity:1" fill="#d0c3a6" d="M 270.5,154.5 C 269.392,158.776 266.725,161.609 262.5,163C 239.833,163.667 217.167,163.667 194.5,163C 189.61,161.611 186.61,158.444 185.5,153.5C 185.876,148.244 188.543,144.744 193.5,143C 216.833,142.333 240.167,142.333 263.5,143C 268.523,145.215 270.856,149.048 270.5,154.5 Z"/></g>
<g><path style="opacity:1" fill="#d25357" d="M 324.5,141.5 C 325.714,143.149 327.047,144.815 328.5,146.5C 322.027,154.22 313.693,157.886 303.5,157.5C 302.853,156.726 302.52,155.726 302.5,154.5C 303.47,151.563 304.137,148.563 304.5,145.5C 306.5,144.167 308.167,142.5 309.5,140.5C 312.319,140.131 315.152,139.798 318,139.5C 320.544,139.336 322.71,140.003 324.5,141.5 Z"/></g>
<g><path style="opacity:1" fill="#460e0f" d="M 380.5,140.5 C 378.833,142.833 376.833,144.833 374.5,146.5C 375.5,143.5 377.5,141.5 380.5,140.5 Z"/></g>
<g><path style="opacity:1" fill="#474750" d="M 93.5,143.5 C 94.2216,143.918 94.7216,144.584 95,145.5C 95.414,145.043 95.914,144.709 96.5,144.5C 99.1092,145.23 101.776,145.73 104.5,146C 102.444,146.311 100.444,146.811 98.5,147.5C 91.9812,146.425 87.3145,146.425 84.5,147.5C 84.5,152.167 84.5,156.833 84.5,161.5C 85.5,161.5 86.5,161.5 87.5,161.5C 87.5,157.167 87.5,152.833 87.5,148.5C 89.1667,148.5 90.8333,148.5 92.5,148.5C 92.5,153.5 92.5,158.5 92.5,163.5C 88.2984,163.183 84.2984,163.517 80.5,164.5C 77.1667,164.5 73.8333,164.5 70.5,164.5C 70.189,157.91 70.5223,151.41 71.5,145C 78.9123,144.799 86.2456,144.299 93.5,143.5 Z"/></g>
<g><path style="opacity:1" fill="#4d4f59" d="M 114.5,144.5 C 121.833,144.5 129.167,144.5 136.5,144.5C 136.5,145.5 136.5,146.5 136.5,147.5C 135.167,147.5 133.833,147.5 132.5,147.5C 132.5,152.167 132.5,156.833 132.5,161.5C 131.167,161.5 129.833,161.5 128.5,161.5C 127.833,142.833 127.167,142.833 126.5,161.5C 125.167,161.5 123.833,161.5 122.5,161.5C 122.5,156.833 122.5,152.167 122.5,147.5C 121.167,147.5 119.833,147.5 118.5,147.5C 118.5,152.167 118.5,156.833 118.5,161.5C 117.167,161.5 115.833,161.5 114.5,161.5C 114.42,155.525 114.42,149.858 114.5,144.5 Z"/></g>
<g><path style="opacity:1" fill="#b12c32" d="M 398.5,144.5 C 399.8,146.223 400.467,148.39 400.5,151C 400.333,153.167 400.167,155.333 400,157.5C 398.122,159.043 396.622,160.876 395.5,163C 388.196,166.16 380.863,165.327 373.5,160.5C 373.5,159.5 373.5,158.5 373.5,157.5C 378.705,157.866 383.705,157.033 388.5,155C 393.446,152.891 396.779,149.391 398.5,144.5 Z"/></g>
<g><path style="opacity:1" fill="#3a3941" d="M 94.5,121.5 C 97.0866,122.816 100.087,123.483 103.5,123.5C 106.913,123.483 109.913,122.816 112.5,121.5C 113.196,129.067 113.863,136.734 114.5,144.5C 114.42,149.858 114.42,155.525 114.5,161.5C 115.833,161.5 117.167,161.5 118.5,161.5C 118.5,156.833 118.5,152.167 118.5,147.5C 119.833,147.5 121.167,147.5 122.5,147.5C 122.5,152.167 122.5,156.833 122.5,161.5C 123.833,161.5 125.167,161.5 126.5,161.5C 127.167,142.833 127.833,142.833 128.5,161.5C 129.833,161.5 131.167,161.5 132.5,161.5C 132.5,156.833 132.5,152.167 132.5,147.5C 133.833,147.5 135.167,147.5 136.5,147.5C 136.5,153.167 136.5,158.833 136.5,164.5C 129.492,164.334 122.492,164.5 115.5,165C 115,165.5 114.5,166 114,166.5C 113.827,172.348 113.327,178.015 112.5,183.5C 112.666,178.156 112.499,172.823 112,167.5C 111.667,167.833 111.333,168.167 111,168.5C 110.505,166.527 110.338,164.527 110.5,162.5C 106.126,161.638 101.792,161.304 97.5,161.5C 96.1643,163.171 94.831,164.838 93.5,166.5C 89.4731,164.642 85.1398,163.975 80.5,164.5C 84.2984,163.517 88.2984,163.183 92.5,163.5C 92.5,158.5 92.5,153.5 92.5,148.5C 90.8333,148.5 89.1667,148.5 87.5,148.5C 87.5,152.833 87.5,157.167 87.5,161.5C 86.5,161.5 85.5,161.5 84.5,161.5C 84.5,156.833 84.5,152.167 84.5,147.5C 87.3145,146.425 91.9812,146.425 98.5,147.5C 100.444,146.811 102.444,146.311 104.5,146C 101.776,145.73 99.1092,145.23 96.5,144.5C 95.914,144.709 95.414,145.043 95,145.5C 94.7216,144.584 94.2216,143.918 93.5,143.5C 93.175,135.981 93.5084,128.648 94.5,121.5 Z"/></g>
<g><path style="opacity:1" fill="#404353" d="M 96.5,130.5 C 101.167,130.5 105.833,130.5 110.5,130.5C 110.5,132.167 110.5,133.833 110.5,135.5C 105.833,135.5 101.167,135.5 96.5,135.5C 96.5,133.833 96.5,132.167 96.5,130.5 Z"/></g>
<g><path style="opacity:1" fill="#585b64" d="M 94.5,121.5 C 100.5,121.5 106.5,121.5 112.5,121.5C 109.913,122.816 106.913,123.483 103.5,123.5C 100.087,123.483 97.0866,122.816 94.5,121.5 Z"/></g>
<g><path style="opacity:1" fill="#ab2c31" d="M 324.5,141.5 C 331.623,145.427 334.123,151.427 332,159.5C 327.756,168.869 320.589,172.202 310.5,169.5C 308.873,167.37 307.04,165.37 305,163.5C 303.872,161.655 303.372,159.655 303.5,157.5C 313.693,157.886 322.027,154.22 328.5,146.5C 327.047,144.815 325.714,143.149 324.5,141.5 Z"/></g>
<g><path style="opacity:1" fill="#982d2f" d="M 402.5,147.5 C 405.741,160.363 400.908,168.03 388,170.5C 385.815,170.079 383.649,169.579 381.5,169C 379.619,167.238 377.619,165.738 375.5,164.5C 373.896,163.713 373.229,162.38 373.5,160.5C 380.863,165.327 388.196,166.16 395.5,163C 396.622,160.876 398.122,159.043 400,157.5C 400.167,155.333 400.333,153.167 400.5,151C 400.467,148.39 399.8,146.223 398.5,144.5C 393.281,139.74 387.281,138.407 380.5,140.5C 383.897,137.608 387.897,136.774 392.5,138C 394.926,139.145 397.259,140.478 399.5,142C 401.16,143.488 402.16,145.321 402.5,147.5 Z"/></g>
<g><path style="opacity:1" fill="#3e362e" d="M 59.5,151.5 C 61.3712,156.489 60.3712,157.323 56.5,154C 57.9423,153.623 58.9423,152.79 59.5,151.5 Z"/></g>
<g><path style="opacity:1" fill="#39332a" d="M 146.5,151.5 C 151.364,152.964 151.531,154.631 147,156.5C 146.506,154.866 146.34,153.199 146.5,151.5 Z"/></g>
<g><path style="opacity:1" fill="#2b2826" d="M 193.5,146.5 C 202.506,146.334 211.506,146.5 220.5,147C 221.416,147.374 222.25,147.874 223,148.5C 223.667,150.833 223.667,153.167 223,155.5C 222.5,156.667 221.667,157.5 220.5,158C 211.5,158.667 202.5,158.667 193.5,158C 189.555,154.169 189.555,150.336 193.5,146.5 Z"/></g>
<g><path style="opacity:1" fill="#595859" d="M 193.5,149.5 C 202.525,149.168 211.525,149.502 220.5,150.5C 216,150.833 211.5,151.167 207,151.5C 202.114,151.493 197.614,150.826 193.5,149.5 Z"/></g>
<g><path style="opacity:1" fill="#24211f" d="M 236.5,147.5 C 244.99,146.343 253.657,146.176 262.5,147C 263.416,147.374 264.25,147.874 265,148.5C 265.667,151.167 265.667,153.833 265,156.5C 264.25,157.126 263.416,157.626 262.5,158C 253.833,158.667 245.167,158.667 236.5,158C 232.47,155.713 231.636,152.546 234,148.5C 234.671,147.748 235.504,147.414 236.5,147.5 Z"/></g>
<g><path style="opacity:1" fill="#403e3d" d="M 236.5,147.5 C 244.86,147.169 253.193,147.502 261.5,148.5C 262.711,149.72 262.711,150.887 261.5,152C 252.814,152.832 244.147,152.665 235.5,151.5C 234.567,150.015 234.9,148.682 236.5,147.5 Z"/></g>
<g><path style="opacity:1" fill="#531d1b" d="M 374.5,146.5 C 373.756,150.119 373.423,153.785 373.5,157.5C 373.5,158.5 373.5,159.5 373.5,160.5C 370.748,155.659 371.081,150.992 374.5,146.5 Z"/></g>
<g><path style="opacity:1" fill="#928166" d="M 53.5,103.5 C 34.7542,118.314 23.7542,137.647 20.5,161.5C 19.6851,160.571 18.8518,159.571 18,158.5C 17.5068,161.675 16.3402,164.341 14.5,166.5C 16.2527,157.472 18.9194,148.806 22.5,140.5C 25.0078,136.818 27.0078,132.818 28.5,128.5C 32.7002,120.962 38.0335,114.296 44.5,108.5C 46.8863,107.627 48.8863,106.127 50.5,104C 51.448,103.517 52.448,103.351 53.5,103.5 Z"/></g>
<g><path style="opacity:1" fill="#a6a4a1" d="M 102.5,154.5 C 105.91,154.384 107.244,156.05 106.5,159.5C 102.065,160.078 100.732,158.411 102.5,154.5 Z"/></g>
<g><path style="opacity:1" fill="#4e1717" d="M 304.5,145.5 C 304.137,148.563 303.47,151.563 302.5,154.5C 302.52,155.726 302.853,156.726 303.5,157.5C 303.372,159.655 303.872,161.655 305,163.5C 307.04,165.37 308.873,167.37 310.5,169.5C 307.907,168.246 305.573,166.58 303.5,164.5C 301.792,159.628 301.292,154.628 302,149.5C 302.608,147.934 303.442,146.6 304.5,145.5 Z"/></g>
<g><path style="opacity:1" fill="#451414" d="M 402.5,147.5 C 404.017,149.462 404.684,151.795 404.5,154.5C 404.45,157.976 403.783,161.31 402.5,164.5C 394.059,172.995 385.059,173.662 375.5,166.5C 375.5,165.833 375.5,165.167 375.5,164.5C 377.619,165.738 379.619,167.238 381.5,169C 383.649,169.579 385.815,170.079 388,170.5C 400.908,168.03 405.741,160.363 402.5,147.5 Z"/></g>
<g><path style="opacity:1" fill="#c1ad88" d="M 182.5,153.5 C 183.5,153.5 184.5,153.5 185.5,153.5C 186.61,158.444 189.61,161.611 194.5,163C 217.167,163.667 239.833,163.667 262.5,163C 266.725,161.609 269.392,158.776 270.5,154.5C 271.391,153.89 272.391,153.557 273.5,153.5C 272.96,159.212 269.96,163.046 264.5,165C 240.167,165.667 215.833,165.667 191.5,165C 186.466,162.768 183.466,158.935 182.5,153.5 Z"/></g>
<g><path style="opacity:1" fill="#4c1917" d="M 331.5,165.5 C 325.301,171.612 318.301,172.946 310.5,169.5C 320.589,172.202 327.756,168.869 332,159.5C 334.123,151.427 331.623,145.427 324.5,141.5C 322.71,140.003 320.544,139.336 318,139.5C 315.152,139.798 312.319,140.131 309.5,140.5C 317.538,135.989 324.705,137.322 331,144.5C 335.408,151.393 335.574,158.393 331.5,165.5 Z"/></g>
<g><path style="opacity:1" fill="#7c7367" d="M 408.5,162.5 C 410.982,164.102 411.815,166.435 411,169.5C 409.594,168.332 408.428,168.665 407.5,170.5C 406.592,169.21 406.759,167.877 408,166.5C 408.654,167.696 409.154,167.696 409.5,166.5C 408.754,165.264 408.421,163.93 408.5,162.5 Z"/></g>
<g><path style="opacity:0.639" fill="#eeebe6" d="M 96.5,77.5 C 96.5,77.8333 96.5,78.1667 96.5,78.5C 92.7785,78.9111 89.1119,79.5778 85.5,80.5C 84.5084,80.3284 83.8417,80.6618 83.5,81.5C 80.8478,81.4095 78.5145,82.0762 76.5,83.5C 70.7961,85.185 65.4627,87.685 60.5,91C 59.7511,92.7337 59.2511,94.567 59,96.5C 53.6351,99.9222 48.8017,103.922 44.5,108.5C 38.0335,114.296 32.7002,120.962 28.5,128.5C 25.4598,131.914 23.4598,135.914 22.5,140.5C 18.9194,148.806 16.2527,157.472 14.5,166.5C 14.5,166.833 14.5,167.167 14.5,167.5C 12.7938,177.11 11.4605,186.777 10.5,196.5C 9.59603,197.209 9.26269,198.209 9.5,199.5C 6.82458,216.913 4.49124,234.246 2.5,251.5C 2.39134,244.989 2.39134,238.489 2.5,232C 6.48704,208.911 10.3204,185.744 14,162.5C 18.943,133.572 33.6096,111.239 58,95.5C 58.0929,92.9925 58.9262,90.8259 60.5,89C 71.8595,82.3768 83.8595,78.5435 96.5,77.5 Z"/></g>
<g><path style="opacity:1" fill="#c0b69f" d="M 34.5,141.5 C 35.0967,141.735 35.4301,142.235 35.5,143C 33.5931,148.054 32.0931,153.22 31,158.5C 30.6667,167.833 30.3333,177.167 30,186.5C 27.0847,171.052 28.5847,156.052 34.5,141.5 Z"/></g>
<g><path style="opacity:1" fill="#4e4d53" d="M 112.5,183.5 C 112.082,184.222 111.416,184.722 110.5,185C 105.167,185.667 99.8333,185.667 94.5,185C 93.5236,178.924 93.1903,172.758 93.5,166.5C 94.831,164.838 96.1643,163.171 97.5,161.5C 101.792,161.304 106.126,161.638 110.5,162.5C 110.338,164.527 110.505,166.527 111,168.5C 111.333,168.167 111.667,167.833 112,167.5C 112.499,172.823 112.666,178.156 112.5,183.5 Z"/></g>
<g><path style="opacity:1" fill="#b9a990" d="M 303.5,164.5 C 305.573,166.58 307.907,168.246 310.5,169.5C 318.301,172.946 325.301,171.612 331.5,165.5C 328.746,171.637 323.913,174.637 317,174.5C 310.314,173.926 305.814,170.592 303.5,164.5 Z"/></g>
<g><path style="opacity:1" fill="#bbac93" d="M 402.5,164.5 C 399.945,170.88 395.112,174.213 388,174.5C 384.591,174.048 381.424,172.881 378.5,171C 376.859,169.871 375.859,168.371 375.5,166.5C 385.059,173.662 394.059,172.995 402.5,164.5 Z"/></g>
<g><path style="opacity:1" fill="#6f5d49" d="M 14.5,167.5 C 15.1524,168.449 15.4857,169.615 15.5,171C 14.2475,180.935 12.5809,189.435 10.5,196.5C 11.4605,186.777 12.7938,177.11 14.5,167.5 Z"/></g>
<g><path style="opacity:1" fill="#d15457" d="M 357.5,171.5 C 364.373,173.934 365.04,177.434 359.5,182C 353.327,186.794 346.327,188.961 338.5,188.5C 337.641,178.041 342.308,172.041 352.5,170.5C 354.369,170.507 356.036,170.84 357.5,171.5 Z"/></g>
<g><path style="opacity:1" fill="#4b1d1b" d="M 362.5,172.5 C 365.552,173.88 367.718,176.214 369,179.5C 369.667,183.5 369.667,187.5 369,191.5C 368.722,192.416 368.222,193.082 367.5,193.5C 368.571,189.011 368.571,184.678 367.5,180.5C 366.334,177.497 364.667,174.83 362.5,172.5 Z"/></g>
<g><path style="opacity:1" fill="#8e8679" d="M 206.5,174.5 C 209.837,176.542 213.337,176.876 217,175.5C 217.273,177.101 217.773,178.601 218.5,180C 216.939,180.188 216.272,179.355 216.5,177.5C 213.282,177.651 212.949,178.484 215.5,180C 212.518,180.498 209.518,180.665 206.5,180.5C 206.5,178.5 206.5,176.5 206.5,174.5 Z"/></g>
<g><path style="opacity:1" fill="#665c4f" d="M 257.5,175.5 C 259.085,176.474 260.085,177.974 260.5,180C 258.539,179.489 257.539,177.989 257.5,175.5 Z"/></g>
<g><path style="opacity:1" fill="#776b5d" d="M 199.5,176.5 C 200.75,176.577 201.583,177.244 202,178.5C 202.689,177.643 203.522,176.977 204.5,176.5C 204.94,177.698 205.273,178.865 205.5,180C 203.5,179.333 201.5,179.333 199.5,180C 200.171,179.014 200.171,177.847 199.5,176.5 Z"/></g>
<g><path style="opacity:1" fill="#887f74" d="M 247.5,175.5 C 248.234,176.878 248.901,178.378 249.5,180C 247.615,179.77 245.615,179.77 243.5,180C 245.991,179.374 245.991,178.541 243.5,177.5C 244.949,176.828 246.282,176.161 247.5,175.5 Z"/></g>
<g><path style="opacity:1" fill="#72695a" d="M 251.5,177.5 C 251.56,176.957 251.893,176.624 252.5,176.5C 253.429,177.689 253.762,179.022 253.5,180.5C 252.325,180.719 251.325,180.386 250.5,179.5C 250.846,178.304 251.346,178.304 252,179.5C 252.692,178.563 252.525,177.897 251.5,177.5 Z"/></g>
<g><path style="opacity:1" fill="#484031" d="M 254.5,176.5 C 255.239,176.369 255.906,176.536 256.5,177C 255.118,181.705 254.451,181.539 254.5,176.5 Z"/></g>
<g><path style="opacity:1" fill="#b02c32" d="M 357.5,171.5 C 359.216,171.629 360.883,171.962 362.5,172.5C 364.667,174.83 366.334,177.497 367.5,180.5C 367.343,190.5 362.343,196.167 352.5,197.5C 348.271,197.109 344.271,196.109 340.5,194.5C 339.27,192.703 338.604,190.703 338.5,188.5C 346.327,188.961 353.327,186.794 359.5,182C 365.04,177.434 364.373,173.934 357.5,171.5 Z"/></g>
<g><path style="opacity:1" fill="#dacfb6" d="M 18.5,181.5 C 19.4356,191.513 21.769,201.18 25.5,210.5C 21.1266,219.318 18.2932,228.651 17,238.5C 12.0618,266.968 10.0618,295.635 11,324.5C 11.3975,334.454 13.2308,344.12 16.5,353.5C 16.1543,354.696 15.6543,354.696 15,353.5C 13.205,350.901 11.705,348.234 10.5,345.5C 9.16667,341.167 7.83333,336.833 6.5,332.5C 3.19404,310.59 2.69404,288.59 5,266.5C 6.08532,238.058 10.0853,210.058 17,182.5C 17.3826,181.944 17.8826,181.611 18.5,181.5 Z"/></g>
<g><path style="opacity:1" fill="#e6dec7" d="M 313.5,191.5 C 315.087,194.268 316.92,196.935 319,199.5C 324.533,210.358 324.867,221.358 320,232.5C 318.961,231.756 318.461,230.756 318.5,229.5C 321.165,203.664 309.498,191.831 283.5,194C 268.629,200.909 262.629,212.409 265.5,228.5C 265.851,230.869 266.018,233.203 266,235.5C 261.041,229.958 258.875,223.458 259.5,216C 259.455,212.079 259.955,208.245 261,204.5C 262.686,200.448 264.852,196.781 267.5,193.5C 282.412,182.507 297.745,181.84 313.5,191.5 Z"/></g>
<g><path style="opacity:1" fill="#5b462f" d="M 444.5,183.5 C 445.593,191.153 446.593,198.82 447.5,206.5C 445.814,201.26 444.481,194.593 443.5,186.5C 443.52,185.274 443.853,184.274 444.5,183.5 Z"/></g>
<g><path style="opacity:1" fill="#a19176" d="M 326.5,248.5 C 325.833,248.5 325.167,248.5 324.5,248.5C 324.389,247.883 324.056,247.383 323.5,247C 328.221,240.294 330.554,232.794 330.5,224.5C 330.383,210.599 324.716,199.599 313.5,191.5C 297.745,181.84 282.412,182.507 267.5,193.5C 264.14,196.194 261.14,199.194 258.5,202.5C 259.818,198.668 262.152,195.501 265.5,193C 281.141,181.483 297.475,180.483 314.5,190C 333.616,206.309 337.616,225.809 326.5,248.5 Z"/></g>
<g><path style="opacity:1" fill="#541817" d="M 362.5,172.5 C 360.883,171.962 359.216,171.629 357.5,171.5C 356.036,170.84 354.369,170.507 352.5,170.5C 342.308,172.041 337.641,178.041 338.5,188.5C 338.604,190.703 339.27,192.703 340.5,194.5C 344.888,200.685 350.888,203.019 358.5,201.5C 351.178,203.914 344.845,202.247 339.5,196.5C 334.266,186.639 335.932,178.139 344.5,171C 351.006,167.261 357.006,167.761 362.5,172.5 Z"/></g>
<g><path style="opacity:1" fill="#d9ceb5" d="M 447.5,214.5 C 449.604,227.746 450.937,241.08 451.5,254.5C 452.435,275.16 452.601,295.826 452,316.5C 451.136,329.63 447.636,341.963 441.5,353.5C 440.957,353.44 440.624,353.107 440.5,352.5C 442.704,344.98 444.204,337.314 445,329.5C 446.685,292.354 443.352,255.688 435,219.5C 433.672,216.688 432.172,214.022 430.5,211.5C 434.735,200.893 437.569,189.893 439,178.5C 441.332,190.729 444.166,202.729 447.5,214.5 Z"/></g>
<g><path style="opacity:1" fill="#98292c" d="M 367.5,180.5 C 368.571,184.678 368.571,189.011 367.5,193.5C 366.833,195.167 366.167,196.833 365.5,198.5C 363.313,199.758 360.98,200.758 358.5,201.5C 350.888,203.019 344.888,200.685 340.5,194.5C 344.271,196.109 348.271,197.109 352.5,197.5C 362.343,196.167 367.343,190.5 367.5,180.5 Z"/></g>
<g><path style="opacity:1" fill="#706253" d="M 372.5,192.5 C 373.833,192.5 375.167,192.5 376.5,192.5C 376.664,195.187 376.497,197.854 376,200.5C 375,196.5 374,196.5 373,200.5C 372.503,197.854 372.336,195.187 372.5,192.5 Z"/></g>
<g><path style="opacity:1" fill="#42382d" d="M 101.5,198.5 C 105.97,198.03 106.47,199.03 103,201.5C 101.961,200.756 101.461,199.756 101.5,198.5 Z"/></g>
<g><path style="opacity:1" fill="#362e29" d="M 219.5,200.5 C 222.861,201.203 223.194,202.537 220.5,204.5C 218.358,203.563 218.024,202.23 219.5,200.5 Z"/></g>
<g><path style="opacity:1" fill="#3e3833" d="M 227.5,200.5 C 230.861,201.203 231.194,202.537 228.5,204.5C 226.358,203.563 226.024,202.23 227.5,200.5 Z"/></g>
<g><path style="opacity:1" fill="#39342d" d="M 235.5,200.5 C 238.861,201.203 239.194,202.537 236.5,204.5C 234.358,203.563 234.024,202.23 235.5,200.5 Z"/></g>
<g><path style="opacity:1" fill="#baaa92" d="M 339.5,196.5 C 344.845,202.247 351.178,203.914 358.5,201.5C 360.98,200.758 363.313,199.758 365.5,198.5C 359.874,205.763 352.874,207.263 344.5,203C 342.21,201.223 340.543,199.056 339.5,196.5 Z"/></g>
<g><path style="opacity:1" fill="#3a3128" d="M 191.5,226.5 C 190.264,228.649 189.264,230.982 188.5,233.5C 176.206,250.531 161.54,252.864 144.5,240.5C 143.136,238.809 141.803,237.142 140.5,235.5C 132.251,216.489 137.585,202.656 156.5,194C 180.222,191.889 191.888,202.722 191.5,226.5 Z"/></g>
<g><path style="opacity:1" fill="#535251" d="M 183.5,234.5 C 182.666,232.737 183.166,231.07 185,229.5C 185.499,224.177 185.666,218.844 185.5,213.5C 184.167,213.5 182.833,213.5 181.5,213.5C 180.187,208.013 176.853,204.18 171.5,202C 153.446,197.873 143.112,205.04 140.5,223.5C 141.456,202.047 152.456,193.547 173.5,198C 188.643,207.082 191.977,219.249 183.5,234.5 Z"/></g>
<g><path style="opacity:1" fill="#cbbea1" d="M 430.5,211.5 C 432.172,214.022 433.672,216.688 435,219.5C 443.352,255.688 446.685,292.354 445,329.5C 444.204,337.314 442.704,344.98 440.5,352.5C 440.624,353.107 440.957,353.44 441.5,353.5C 439.535,355.768 438.368,358.435 438,361.5C 434.938,364.732 431.771,367.732 428.5,370.5C 423.932,371.898 423.598,371.398 427.5,369C 425.19,368.503 422.857,368.337 420.5,368.5C 404.898,362.412 392.732,352.079 384,337.5C 379.569,330.212 375.902,322.545 373,314.5C 367.597,298.79 362.097,283.123 356.5,267.5C 356.818,266.353 357.484,265.519 358.5,265C 391.908,259.497 415.908,241.663 430.5,211.5 Z"/></g>
<g><path style="opacity:1" fill="#917e61" d="M 219.5,222.5 C 218.378,220.712 218.211,218.712 219,216.5C 219.75,215.874 220.584,215.374 221.5,215C 226.167,214.333 230.833,214.333 235.5,215C 239.5,218.333 239.5,221.667 235.5,225C 230.5,225.667 225.5,225.667 220.5,225C 219.748,224.329 219.414,223.496 219.5,222.5 Z"/></g>
<g><path style="opacity:1" fill="#cbbea1" d="M 25.5,210.5 C 40.1747,241.31 64.508,259.477 98.5,265C 99.0585,265.725 99.3918,266.558 99.5,267.5C 92.7061,285.714 86.2061,304.048 80,322.5C 72.012,342.82 58.1787,357.653 38.5,367C 35.2432,368.043 31.9099,368.543 28.5,368.5C 27.828,367.733 26.9947,367.066 26,366.5C 25.2825,367.451 24.4491,367.617 23.5,367C 20.9172,364.245 18.2505,361.745 15.5,359.5C 14.0937,359.027 13.427,358.027 13.5,356.5C 12.4533,353.404 11.12,350.404 9.5,347.5C 9.86273,346.817 10.1961,346.15 10.5,345.5C 11.705,348.234 13.205,350.901 15,353.5C 15.6543,354.696 16.1543,354.696 16.5,353.5C 13.2308,344.12 11.3975,334.454 11,324.5C 10.0618,295.635 12.0618,266.968 17,238.5C 18.2932,228.651 21.1266,219.318 25.5,210.5 Z"/></g>
<g><path style="opacity:1" fill="#c1b295" d="M 219.5,222.5 C 219.261,220.533 219.594,218.699 220.5,217C 225.823,216.501 231.156,216.334 236.5,216.5C 236.958,219.394 236.291,221.894 234.5,224C 229.215,225.045 224.215,224.545 219.5,222.5 Z"/></g>
<g><path style="opacity:1" fill="#cbbea1" d="M 341.5,225.5 C 341.263,224.209 341.596,223.209 342.5,222.5C 342.369,223.239 342.536,223.906 343,224.5C 348.176,216.081 354.176,215.414 361,222.5C 363.618,227.946 362.451,232.446 357.5,236C 348.271,238.228 342.938,234.728 341.5,225.5 Z"/></g>
<g><path style="opacity:1" fill="#6e5d46" d="M 448.5,210.5 C 449.599,219.667 450.932,228.667 452.5,237.5C 452.5,237.833 452.5,238.167 452.5,238.5C 452.19,241.713 452.523,244.713 453.5,247.5C 453.5,248.167 453.5,248.833 453.5,249.5C 453.5,254.167 453.5,258.833 453.5,263.5C 452.658,261.761 451.991,258.761 451.5,254.5C 450.937,241.08 449.604,227.746 447.5,214.5C 447.232,212.901 447.566,211.568 448.5,210.5 Z"/></g>
<g><path style="opacity:1" fill="#c7bb9e" d="M 99.5,217.5 C 107.736,216.111 112.736,219.444 114.5,227.5C 112.782,235.698 107.782,238.865 99.5,237C 94.4379,234.267 92.6046,230.1 94,224.5C 95.6665,222.004 97.4998,219.671 99.5,217.5 Z"/></g>
<g><path style="opacity:1" fill="#72624c" d="M 9.5,199.5 C 10.1582,200.793 10.4915,202.293 10.5,204C 3.32906,245.568 0.995729,287.401 3.5,329.5C 1.61389,322.084 0.613886,314.417 0.5,306.5C 1.83333,303.833 1.83333,301.167 0.5,298.5C 0.794212,287.499 1.12755,276.499 1.5,265.5C 1.5,265.167 1.5,264.833 1.5,264.5C 2.48489,260.366 2.81822,256.032 2.5,251.5C 4.49124,234.246 6.82458,216.913 9.5,199.5 Z"/></g>
<g><path style="opacity:1" fill="#635036" d="M 341.5,225.5 C 342.938,234.728 348.271,238.228 357.5,236C 362.451,232.446 363.618,227.946 361,222.5C 354.176,215.414 348.176,216.081 343,224.5C 342.536,223.906 342.369,223.239 342.5,222.5C 346.718,216.287 352.384,214.787 359.5,218C 366.365,224.642 366.031,230.976 358.5,237C 347.876,240.547 342.21,236.714 341.5,225.5 Z"/></g>
<g><path style="opacity:0.537" fill="#f1eee9" d="M 452.5,238.5 C 454.287,241.409 454.621,244.409 453.5,247.5C 452.523,244.713 452.19,241.713 452.5,238.5 Z"/></g>
<g><path style="opacity:1" fill="#ccbfa3" d="M 187.5,192.5 C 199.08,201.671 204.08,213.671 202.5,228.5C 200.558,233.718 198.058,238.718 195,243.5C 174.506,262.442 153.506,263.108 132,245.5C 123.121,230.273 123.454,215.273 133,200.5C 134.039,199.29 135.206,198.29 136.5,197.5C 128.881,211.623 130.048,224.956 140,237.5C 140.464,236.906 140.631,236.239 140.5,235.5C 141.803,237.142 143.136,238.809 144.5,240.5C 151.098,249.773 160.098,252.94 171.5,250C 179.687,246.978 185.354,241.478 188.5,233.5C 189.264,230.982 190.264,228.649 191.5,226.5C 191.714,228.144 191.38,229.644 190.5,231C 191,231.167 191.5,231.333 192,231.5C 194.093,229.652 195.426,227.319 196,224.5C 197.248,216.192 196.248,208.192 193,200.5C 190.53,198.209 188.696,195.543 187.5,192.5 Z"/></g>
<g><path style="opacity:1" fill="#424140" d="M 183.5,234.5 C 173.748,245.447 162.414,247.28 149.5,240C 144.005,235.843 141.005,230.343 140.5,223.5C 143.112,205.04 153.446,197.873 171.5,202C 176.853,204.18 180.187,208.013 181.5,213.5C 182.833,213.5 184.167,213.5 185.5,213.5C 185.666,218.844 185.499,224.177 185,229.5C 183.166,231.07 182.666,232.737 183.5,234.5 Z"/></g>
<g><path style="opacity:1" fill="#504f4e" d="M 152.5,207.5 C 150.675,216.521 154.509,220.855 164,220.5C 172.645,221.02 176.812,217.02 176.5,208.5C 178.708,209.894 180.208,211.894 181,214.5C 182.886,231.281 175.386,238.781 158.5,237C 146.286,231.546 143.119,222.713 149,210.5C 150.039,209.29 151.206,208.29 152.5,207.5 Z"/></g>
<g><path style="opacity:1" fill="#626161" d="M 176.5,208.5 C 176.812,217.02 172.645,221.02 164,220.5C 154.509,220.855 150.675,216.521 152.5,207.5C 157.927,202.355 164.261,201.188 171.5,204C 173.66,204.996 175.327,206.496 176.5,208.5 Z"/></g>
<g><path style="opacity:1" fill="#ccbfa2" d="M 313.5,191.5 C 324.716,199.599 330.383,210.599 330.5,224.5C 327.052,243.447 315.719,254.614 296.5,258C 277.606,258.467 263.772,250.301 255,233.5C 252.154,222.654 253.321,212.321 258.5,202.5C 261.14,199.194 264.14,196.194 267.5,193.5C 264.852,196.781 262.686,200.448 261,204.5C 259.955,208.245 259.455,212.079 259.5,216C 258.875,223.458 261.041,229.958 266,235.5C 266.018,233.203 265.851,230.869 265.5,228.5C 267.228,232.287 269.228,235.954 271.5,239.5C 274.553,244.388 278.886,247.888 284.5,250C 296.508,252.578 306.342,249.078 314,239.5C 314.791,238.255 315.291,236.922 315.5,235.5C 315.992,233.181 316.992,231.181 318.5,229.5C 318.461,230.756 318.961,231.756 320,232.5C 324.867,221.358 324.533,210.358 319,199.5C 316.92,196.935 315.087,194.268 313.5,191.5 Z"/></g>
<g><path style="opacity:1" fill="#3b3229" d="M 318.5,229.5 C 316.992,231.181 315.992,233.181 315.5,235.5C 302.137,251.103 287.47,252.436 271.5,239.5C 269.228,235.954 267.228,232.287 265.5,228.5C 262.629,212.409 268.629,200.909 283.5,194C 309.498,191.831 321.165,203.664 318.5,229.5 Z"/></g>
<g><path style="opacity:1" fill="#4b4a48" d="M 284.5,196.5 C 308.488,195.651 318.322,206.984 314,230.5C 305.658,244.28 294.158,247.78 279.5,241C 264.352,228.459 263.686,215.126 277.5,201C 279.898,199.476 282.231,197.976 284.5,196.5 Z"/></g>
<g><path style="opacity:1" fill="#626161" d="M 287.5,202.5 C 293.804,201.781 299.304,203.447 304,207.5C 305.654,213.693 303.487,217.86 297.5,220C 288.677,222.753 282.677,219.919 279.5,211.5C 280.3,206.782 282.966,203.782 287.5,202.5 Z"/></g>
<g><path style="opacity:1" fill="#b7a98b" d="M 258.5,202.5 C 253.321,212.321 252.154,222.654 255,233.5C 263.772,250.301 277.606,258.467 296.5,258C 315.719,254.614 327.052,243.447 330.5,224.5C 330.554,232.794 328.221,240.294 323.5,247C 324.056,247.383 324.389,247.883 324.5,248.5C 322.188,250.146 320.188,252.146 318.5,254.5C 323.209,257.015 328.209,258.849 333.5,260C 365.284,263.685 392.284,254.185 414.5,231.5C 395.677,253.231 371.677,263.564 342.5,262.5C 332.977,262.578 324.144,260.245 316,255.5C 300.799,265.544 285.299,266.044 269.5,257C 263.112,251.958 258.279,245.791 255,238.5C 237.577,239.492 220.077,239.825 202.5,239.5C 202.263,238.209 202.596,237.209 203.5,236.5C 219.995,237.662 236.662,237.828 253.5,237C 251.557,229.647 251.057,222.147 252,214.5C 253.418,209.99 255.585,205.99 258.5,202.5 Z"/></g>
<g><path style="opacity:1" fill="#a59577" d="M 315.5,235.5 C 315.291,236.922 314.791,238.255 314,239.5C 306.342,249.078 296.508,252.578 284.5,250C 278.886,247.888 274.553,244.388 271.5,239.5C 287.47,252.436 302.137,251.103 315.5,235.5 Z"/></g>
<g><path style="opacity:1" fill="#988971" d="M 326.5,248.5 C 333.494,250.463 340.66,251.463 348,251.5C 355.943,251.145 363.776,250.312 371.5,249C 360.057,252.31 348.39,253.31 336.5,252C 332.891,251.299 329.558,250.132 326.5,248.5 Z"/></g>
<g><path style="opacity:1" fill="#b7a88a" d="M 136.5,197.5 C 135.206,198.29 134.039,199.29 133,200.5C 123.454,215.273 123.121,230.273 132,245.5C 153.506,263.108 174.506,262.442 195,243.5C 198.058,238.718 200.558,233.718 202.5,228.5C 199.648,247.188 188.981,258.688 170.5,263C 159.12,265.113 148.953,262.613 140,255.5C 131.08,260.052 121.58,262.386 111.5,262.5C 82.455,262.228 58.2883,251.228 39,229.5C 36.8431,227.183 35.3431,224.516 34.5,221.5C 61.1678,256.389 95.5011,267.389 137.5,254.5C 135.603,251.244 132.937,249.244 129.5,248.5C 129.804,247.85 130.137,247.183 130.5,246.5C 125.187,237.915 123.021,228.582 124,218.5C 126.038,206.2 132.205,197.033 142.5,191C 140.294,193.037 138.294,195.203 136.5,197.5 Z"/></g>
<g><path style="opacity:1" fill="#a99c84" d="M 129.5,248.5 C 125.89,250.574 121.89,251.741 117.5,252C 111.833,252.667 106.167,252.667 100.5,252C 110.306,251.869 119.973,250.703 129.5,248.5 Z"/></g>
<g><path style="opacity:1" fill="#a59577" d="M 188.5,233.5 C 185.354,241.478 179.687,246.978 171.5,250C 160.098,252.94 151.098,249.773 144.5,240.5C 161.54,252.864 176.206,250.531 188.5,233.5 Z"/></g>
<g><path style="opacity:0.225" fill="#f2efec" d="M 453.5,249.5 C 454.984,255.757 455.984,262.09 456.5,268.5C 456.5,273.833 456.5,279.167 456.5,284.5C 456.167,284.5 455.833,284.5 455.5,284.5C 455.232,277.317 454.565,270.317 453.5,263.5C 453.5,258.833 453.5,254.167 453.5,249.5 Z"/></g>
<g><path style="opacity:1" fill="#978669" d="M 203.5,236.5 C 202.596,237.209 202.263,238.209 202.5,239.5C 220.077,239.825 237.577,239.492 255,238.5C 258.279,245.791 263.112,251.958 269.5,257C 285.299,266.044 300.799,265.544 316,255.5C 324.144,260.245 332.977,262.578 342.5,262.5C 346.647,263.325 350.981,263.825 355.5,264C 352.518,264.498 349.518,264.665 346.5,264.5C 349.547,278.275 354.047,291.608 360,304.5C 363.503,320.504 369.503,335.504 378,349.5C 384.692,358.862 393.192,366.029 403.5,371C 409.097,372.456 414.763,372.789 420.5,372C 421.672,371.581 422.672,370.915 423.5,370C 421.494,369.917 420.494,369.417 420.5,368.5C 422.857,368.337 425.19,368.503 427.5,369C 423.598,371.398 423.932,371.898 428.5,370.5C 423.443,374.529 417.776,377.196 411.5,378.5C 408.5,378.5 405.5,378.5 402.5,378.5C 384.975,372.144 372.809,360.144 366,342.5C 361.065,325.749 355.065,309.415 348,293.5C 342.641,284.469 336.141,276.302 328.5,269C 326.922,267.906 325.255,267.072 323.5,266.5C 322.02,263.693 319.687,262.027 316.5,261.5C 307.158,266.598 297.158,268.931 286.5,268.5C 286.167,268.5 285.833,268.5 285.5,268.5C 277.648,265.907 270.315,262.241 263.5,257.5C 260.785,254.786 258.451,251.786 256.5,248.5C 247.358,247.168 237.858,246.502 228,246.5C 218.5,246.667 209,246.833 199.5,247C 198.748,247.671 198.414,248.504 198.5,249.5C 198.5,250.167 198.5,250.833 198.5,251.5C 195.833,253.5 193.5,255.833 191.5,258.5C 191.5,259.167 191.167,259.5 190.5,259.5C 184.766,262.699 178.766,265.365 172.5,267.5C 166.653,266.753 160.653,266.086 154.5,265.5C 153.584,265.543 152.917,265.876 152.5,266.5C 148.243,265.038 144.243,263.038 140.5,260.5C 139.478,260.855 138.811,261.522 138.5,262.5C 135.63,263.433 133.296,265.1 131.5,267.5C 130.109,269.89 128.109,271.557 125.5,272.5C 122.427,274.569 120.094,277.236 118.5,280.5C 117.876,282.754 116.543,284.421 114.5,285.5C 110.99,288.358 108.657,292.024 107.5,296.5C 105.214,299.463 103.381,302.796 102,306.5C 97.3126,323.73 91.146,340.397 83.5,356.5C 77.1633,364.999 69.1633,371.499 59.5,376C 56.322,376.66 53.322,377.493 50.5,378.5C 48.5,378.5 46.5,378.5 44.5,378.5C 39.3649,377.455 34.3649,375.788 29.5,373.5C 27.3533,371.53 25.02,369.697 22.5,368C 19.5532,365.564 17.2199,362.731 15.5,359.5C 18.2505,361.745 20.9172,364.245 23.5,367C 24.4491,367.617 25.2825,367.451 26,366.5C 26.9947,367.066 27.828,367.733 28.5,368.5C 30.1457,370.146 31.8123,371.812 33.5,373.5C 33.8333,372.833 34.1667,372.167 34.5,371.5C 44.7065,374.035 54.0399,372.201 62.5,366C 72.5382,357.779 80.0382,347.612 85,335.5C 92.2731,314.347 99.9397,293.347 108,272.5C 109.473,269.375 111.307,266.541 113.5,264C 112.584,263.722 111.918,263.222 111.5,262.5C 121.58,262.386 131.08,260.052 140,255.5C 148.953,262.613 159.12,265.113 170.5,263C 188.981,258.688 199.648,247.188 202.5,228.5C 204.08,213.671 199.08,201.671 187.5,192.5C 175.045,184.292 161.712,182.459 147.5,187C 157.986,182.678 168.653,182.345 179.5,186C 200.233,196.667 208.233,213.5 203.5,236.5 Z"/></g>
<g><path style="opacity:0.071" fill="#faf9f6" d="M 198.5,251.5 C 197.167,254.833 194.833,257.167 191.5,258.5C 193.5,255.833 195.833,253.5 198.5,251.5 Z"/></g>
<g><path style="opacity:0.077" fill="#f7f5f1" d="M 256.5,248.5 C 258.451,251.786 260.785,254.786 263.5,257.5C 260.069,255.905 257.402,253.405 255.5,250C 237.167,249.333 218.833,249.333 200.5,250C 199.956,250.717 199.289,251.217 198.5,251.5C 198.5,250.833 198.5,250.167 198.5,249.5C 199.289,249.217 199.956,248.717 200.5,248C 219.24,247.181 237.907,247.347 256.5,248.5 Z"/></g>
<g><path style="opacity:1" fill="#43321f" d="M 256.5,248.5 C 237.907,247.347 219.24,247.181 200.5,248C 199.956,248.717 199.289,249.217 198.5,249.5C 198.414,248.504 198.748,247.671 199.5,247C 209,246.833 218.5,246.667 228,246.5C 237.858,246.502 247.358,247.168 256.5,248.5 Z"/></g>
<g><path style="opacity:0.941" fill="#eae5de" d="M 2.5,251.5 C 2.81822,256.032 2.48489,260.366 1.5,264.5C 0.852871,263.726 0.519537,262.726 0.5,261.5C 0.900571,257.976 1.56724,254.642 2.5,251.5 Z"/></g>
<g><path style="opacity:0.502" fill="#f1ede9" d="M 323.5,266.5 C 321.059,265.443 318.725,264.11 316.5,262.5C 311.706,265.153 306.706,267.32 301.5,269C 296.316,269.816 291.316,269.65 286.5,268.5C 297.158,268.931 307.158,266.598 316.5,261.5C 319.687,262.027 322.02,263.693 323.5,266.5 Z"/></g>
<g><path style="opacity:0.4" fill="#f3efea" d="M 138.5,262.5 C 136.704,264.9 134.37,266.567 131.5,267.5C 133.296,265.1 135.63,263.433 138.5,262.5 Z"/></g>
<g><path style="opacity:0.776" fill="#eae5df" d="M 263.5,257.5 C 270.315,262.241 277.648,265.907 285.5,268.5C 278.778,267.836 272.445,265.336 266.5,261C 265.29,259.961 264.29,258.794 263.5,257.5 Z"/></g>
<g><path style="opacity:1" fill="#716048" d="M 152.5,266.5 C 152.917,265.876 153.584,265.543 154.5,265.5C 160.653,266.086 166.653,266.753 172.5,267.5C 171.833,267.5 171.5,267.833 171.5,268.5C 171.167,268.5 170.833,268.5 170.5,268.5C 164.346,268.9 158.346,268.233 152.5,266.5 Z"/></g>
<g><path style="opacity:0.169" fill="#f3f0ec" d="M 190.5,259.5 C 185.116,265.031 178.782,268.031 171.5,268.5C 171.5,267.833 171.833,267.5 172.5,267.5C 178.766,265.365 184.766,262.699 190.5,259.5 Z"/></g>
<g><path style="opacity:0.231" fill="#f5f2ef" d="M 152.5,266.5 C 158.346,268.233 164.346,268.9 170.5,268.5C 165.684,269.65 160.684,269.816 155.5,269C 149.725,266.912 144.058,264.745 138.5,262.5C 138.811,261.522 139.478,260.855 140.5,260.5C 144.243,263.038 148.243,265.038 152.5,266.5 Z"/></g>
<g><path style="opacity:0.937" fill="#ece8e3" d="M 1.5,265.5 C 1.12755,276.499 0.794212,287.499 0.5,298.5C 0.166667,298.5 -0.166667,298.5 -0.5,298.5C -0.5,290.167 -0.5,281.833 -0.5,273.5C 0.166667,270.833 0.833333,268.167 1.5,265.5 Z"/></g>
<g><path style="opacity:0.2" fill="#f7f6f3" d="M 125.5,272.5 C 123.906,275.764 121.573,278.431 118.5,280.5C 120.094,277.236 122.427,274.569 125.5,272.5 Z"/></g>
<g><path style="opacity:1" fill="#a7987b" d="M 440.5,163.5 C 442.152,169.977 443.485,176.644 444.5,183.5C 443.853,184.274 443.52,185.274 443.5,186.5C 444.481,194.593 445.814,201.26 447.5,206.5C 448.434,207.568 448.768,208.901 448.5,210.5C 447.566,211.568 447.232,212.901 447.5,214.5C 444.166,202.729 441.332,190.729 439,178.5C 437.569,189.893 434.735,200.893 430.5,211.5C 415.908,241.663 391.908,259.497 358.5,265C 357.484,265.519 356.818,266.353 356.5,267.5C 362.097,283.123 367.597,298.79 373,314.5C 375.902,322.545 379.569,330.212 384,337.5C 392.732,352.079 404.898,362.412 420.5,368.5C 420.494,369.417 421.494,369.917 423.5,370C 422.672,370.915 421.672,371.581 420.5,372C 414.763,372.789 409.097,372.456 403.5,371C 393.192,366.029 384.692,358.862 378,349.5C 369.503,335.504 363.503,320.504 360,304.5C 354.047,291.608 349.547,278.275 346.5,264.5C 349.518,264.665 352.518,264.498 355.5,264C 350.981,263.825 346.647,263.325 342.5,262.5C 371.677,263.564 395.677,253.231 414.5,231.5C 429.757,213.401 437.09,192.401 436.5,168.5C 437.323,165.023 437.823,161.356 438,157.5C 438.845,159.611 439.678,161.611 440.5,163.5 Z"/></g>
<g><path style="opacity:0.675" fill="#f1eee9" d="M 114.5,285.5 C 112.554,289.439 110.221,293.106 107.5,296.5C 108.657,292.024 110.99,288.358 114.5,285.5 Z"/></g>
<g><path style="opacity:1" fill="#422404" d="M 455.5,284.5 C 455.833,284.5 456.167,284.5 456.5,284.5C 456.5,285.167 456.5,285.833 456.5,286.5C 455.507,294.984 455.174,303.651 455.5,312.5C 454.167,303.167 454.167,293.833 455.5,284.5 Z"/></g>
<g><path style="opacity:0.937" fill="#4c2a1d" d="M -0.5,298.5 C -0.166667,298.5 0.166667,298.5 0.5,298.5C 1.83333,301.167 1.83333,303.833 0.5,306.5C 0.5,305.833 0.166667,305.5 -0.5,305.5C -0.5,303.167 -0.5,300.833 -0.5,298.5 Z"/></g>
<g><path style="opacity:0.682" fill="#eeeae5" d="M 107.5,296.5 C 102.115,309.486 97.6154,322.82 94,336.5C 91.2503,343.67 87.7503,350.337 83.5,356.5C 91.146,340.397 97.3126,323.73 102,306.5C 103.381,302.796 105.214,299.463 107.5,296.5 Z"/></g>
<g><path style="opacity:0.565" fill="#eeeae6" d="M 323.5,266.5 C 325.255,267.072 326.922,267.906 328.5,269C 336.141,276.302 342.641,284.469 348,293.5C 355.065,309.415 361.065,325.749 366,342.5C 372.809,360.144 384.975,372.144 402.5,378.5C 400.833,378.5 399.167,378.5 397.5,378.5C 379.449,369.934 367.615,355.934 362,336.5C 357.572,314.65 348.572,294.984 335,277.5C 331.271,273.602 327.438,269.935 323.5,266.5 Z"/></g>
<g><path style="opacity:1" fill="#b6a78a" d="M 20.5,161.5 C 20.7373,162.791 20.404,163.791 19.5,164.5C 18.5111,169.975 18.1778,175.642 18.5,181.5C 17.8826,181.611 17.3826,181.944 17,182.5C 10.0853,210.058 6.08532,238.058 5,266.5C 2.69404,288.59 3.19404,310.59 6.5,332.5C 5.10008,331.9 4.10008,330.9 3.5,329.5C 0.995729,287.401 3.32906,245.568 10.5,204C 10.4915,202.293 10.1582,200.793 9.5,199.5C 9.26269,198.209 9.59603,197.209 10.5,196.5C 12.5809,189.435 14.2475,180.935 15.5,171C 15.4857,169.615 15.1524,168.449 14.5,167.5C 14.5,167.167 14.5,166.833 14.5,166.5C 16.3402,164.341 17.5068,161.675 18,158.5C 18.8518,159.571 19.6851,160.571 20.5,161.5 Z"/></g>
<g><path style="opacity:1" fill="#928268" d="M 3.5,329.5 C 4.10008,330.9 5.10008,331.9 6.5,332.5C 7.83333,336.833 9.16667,341.167 10.5,345.5C 10.1961,346.15 9.86273,346.817 9.5,347.5C 11.12,350.404 12.4533,353.404 13.5,356.5C 12.8333,356.167 12.1667,355.833 11.5,355.5C 8.77209,349.267 6.27209,342.933 4,336.5C 3.50335,334.19 3.33669,331.857 3.5,329.5 Z"/></g>
<g><path style="opacity:0.057" fill="#f0ede8" d="M -0.5,305.5 C 0.166667,305.5 0.5,305.833 0.5,306.5C 0.613886,314.417 1.61389,322.084 3.5,329.5C 3.33669,331.857 3.50335,334.19 4,336.5C 6.27209,342.933 8.77209,349.267 11.5,355.5C 9.19039,352.898 7.35706,349.898 6,346.5C 3.01919,338.238 0.852519,329.905 -0.5,321.5C -0.5,316.167 -0.5,310.833 -0.5,305.5 Z"/></g>
<g><path style="opacity:1" fill="#9b8c71" d="M 451.5,254.5 C 451.991,258.761 452.658,261.761 453.5,263.5C 454.565,270.317 455.232,277.317 455.5,284.5C 454.167,293.833 454.167,303.167 455.5,312.5C 455.534,334.584 447.868,353.418 432.5,369C 431.255,369.791 429.922,370.291 428.5,370.5C 431.771,367.732 434.938,364.732 438,361.5C 438.368,358.435 439.535,355.768 441.5,353.5C 447.636,341.963 451.136,329.63 452,316.5C 452.601,295.826 452.435,275.16 451.5,254.5 Z"/></g>
<g><path style="opacity:1" fill="#a7987b" d="M 19.5,164.5 C 19.407,170.863 19.7403,177.196 20.5,183.5C 22.3683,197.229 27.0349,209.896 34.5,221.5C 35.3431,224.516 36.8431,227.183 39,229.5C 58.2883,251.228 82.455,262.228 111.5,262.5C 111.918,263.222 112.584,263.722 113.5,264C 111.307,266.541 109.473,269.375 108,272.5C 99.9397,293.347 92.2731,314.347 85,335.5C 80.0382,347.612 72.5382,357.779 62.5,366C 54.0399,372.201 44.7065,374.035 34.5,371.5C 34.1667,372.167 33.8333,372.833 33.5,373.5C 31.8123,371.812 30.1457,370.146 28.5,368.5C 31.9099,368.543 35.2432,368.043 38.5,367C 58.1787,357.653 72.012,342.82 80,322.5C 86.2061,304.048 92.7061,285.714 99.5,267.5C 99.3918,266.558 99.0585,265.725 98.5,265C 64.508,259.477 40.1747,241.31 25.5,210.5C 21.769,201.18 19.4356,191.513 18.5,181.5C 18.1778,175.642 18.5111,169.975 19.5,164.5 Z"/></g>
<g><path style="opacity:0.216" fill="#f4f1ec" d="M 11.5,355.5 C 12.1667,355.833 12.8333,356.167 13.5,356.5C 13.427,358.027 14.0937,359.027 15.5,359.5C 17.2199,362.731 19.5532,365.564 22.5,368C 25.02,369.697 27.3533,371.53 29.5,373.5C 25.9071,372.033 22.5738,370.033 19.5,367.5C 15.8307,364.159 13.164,360.159 11.5,355.5 Z"/></g>
<g><path style="opacity:0.282" fill="#f0ece7" d="M 456.5,286.5 C 456.5,298.833 456.5,311.167 456.5,323.5C 454.349,339.137 448.349,353.137 438.5,365.5C 437.833,365.5 437.5,365.833 437.5,366.5C 436.833,366.5 436.5,366.833 436.5,367.5C 430.964,372.058 424.964,375.725 418.5,378.5C 416.167,378.5 413.833,378.5 411.5,378.5C 417.776,377.196 423.443,374.529 428.5,370.5C 429.922,370.291 431.255,369.791 432.5,369C 447.868,353.418 455.534,334.584 455.5,312.5C 455.174,303.651 455.507,294.984 456.5,286.5 Z"/></g>
<g><path style="opacity:0.004" fill="#f6f6ef" d="M 438.5,365.5 C 439.833,366.167 439.833,366.167 438.5,365.5 Z"/></g>
<g><path style="opacity:0.004" fill="#f6f5ed" d="M 437.5,366.5 C 437.833,366.5 438.167,366.5 438.5,366.5C 438.315,367.17 437.981,367.17 437.5,366.5 Z"/></g>
<g><path style="opacity:0.004" fill="#f8f8f1" d="M 19.5,367.5 C 18.8333,368.167 18.8333,368.167 19.5,367.5 Z"/></g>
<g><path style="opacity:0.004" fill="#f6f5ee" d="M 436.5,367.5 C 436.833,367.5 437.167,367.5 437.5,367.5C 437.315,368.17 436.981,368.17 436.5,367.5 Z"/></g>
<g><path style="opacity:0.475" fill="#efebe7" d="M 83.5,356.5 C 77.6372,366.699 69.3039,374.033 58.5,378.5C 55.8333,378.5 53.1667,378.5 50.5,378.5C 53.322,377.493 56.322,376.66 59.5,376C 69.1633,371.499 77.1633,364.999 83.5,356.5 Z"/></g>
<g><path style="opacity:0.065" fill="#f2efea" d="M 29.5,373.5 C 34.3649,375.788 39.3649,377.455 44.5,378.5C 42.1667,378.5 39.8333,378.5 37.5,378.5C 34.53,377.347 31.8633,375.68 29.5,373.5 Z"/></g>
</svg>
