<?xml version="1.0" encoding="UTF-8" standalone="no"?>
<!-- Created with Inkscape (http://www.inkscape.org/) -->

<svg
   id="svg980"
   version="1.1"
   viewBox="0 0 33.574066 16.648777"
   height="16.648777mm"
   width="33.574066mm"
   sodipodi:docname="buttons.svg"
   inkscape:version="1.4.2 (f4327f4, 2025-05-13)"
   xmlns:inkscape="http://www.inkscape.org/namespaces/inkscape"
   xmlns:sodipodi="http://sodipodi.sourceforge.net/DTD/sodipodi-0.dtd"
   xmlns="http://www.w3.org/2000/svg"
   xmlns:svg="http://www.w3.org/2000/svg">
  <sodipodi:namedview
     id="namedview982"
     pagecolor="#ffffff"
     bordercolor="#666666"
     borderopacity="1.0"
     inkscape:pageshadow="2"
     inkscape:pageopacity="0.0"
     inkscape:pagecheckerboard="0"
     inkscape:document-units="mm"
     showgrid="true"
     inkscape:zoom="4"
     inkscape:cx="119"
     inkscape:cy="49.375"
     inkscape:window-width="1920"
     inkscape:window-height="1017"
     inkscape:window-x="1592"
     inkscape:window-y="-8"
     inkscape:window-maximized="1"
     inkscape:current-layer="layer1"
     inkscape:showpageshadow="2"
     inkscape:deskcolor="#d1d1d1">
    <inkscape:grid
       type="xygrid"
       id="grid1491"
       originx="-35.138306"
       originy="-222.86351"
       spacingy="1"
       spacingx="1"
       units="mm" />
  </sodipodi:namedview>
  <defs
     id="defs977" />
  <g
     inkscape:label="Capa 1"
     inkscape:groupmode="layer"
     id="layer1"
     transform="translate(-16,-106)">
    <g
       id="g1489"
       transform="translate(23.500169,10.94868)">
      <ellipse
         style="fill:#000000;fill-opacity:1;fill-rule:evenodd;stroke:#000000;stroke-width:0.218628;stroke-miterlimit:4;stroke-dasharray:none;stroke-opacity:1"
         id="path6182"
         cx="21.893864"
         cy="99.178703"
         rx="4.0707183"
         ry="4.0180697" />
      <text
         xml:space="preserve"
         style="font-style:normal;font-weight:normal;font-size:4.14821px;line-height:1.25;font-family:sans-serif;fill:#45a2f1;fill-opacity:1;stroke:none;stroke-width:0.103706"
         x="21.618055"
         y="96.313072"
         id="text9949"
         transform="scale(0.95548821,1.0465854)"><tspan
           sodipodi:role="line"
           id="tspan9947"
           style="fill:#45a2f1;fill-opacity:1;stroke-width:0.103706"
           x="21.618055"
           y="96.313072">Y</tspan></text>
    </g>
    <g
       id="g1484"
       transform="translate(5.7001856,19.120693)">
      <ellipse
         style="display:inline;fill:#000000;fill-opacity:1;fill-rule:evenodd;stroke:#000000;stroke-width:0.218628;stroke-miterlimit:4;stroke-dasharray:none;stroke-opacity:1"
         id="path6182-3"
         cx="31.299847"
         cy="91.006691"
         rx="4.0707183"
         ry="4.0180697" />
      <text
         xml:space="preserve"
         style="font-style:normal;font-weight:normal;font-size:4.11002px;line-height:1.25;font-family:sans-serif;display:inline;fill:#ef7ded;fill-opacity:1;stroke:none;stroke-width:0.102751"
         x="31.666792"
         y="87.622726"
         id="text13027"
         transform="scale(0.94669294,1.0563087)"><tspan
           sodipodi:role="line"
           id="tspan13025"
           style="fill:#ef7ded;fill-opacity:1;stroke-width:0.102751"
           x="31.666792"
           y="87.622726">X</tspan></text>
    </g>
    <g
       id="g1479"
       transform="translate(-12.157879,10.872394)">
      <ellipse
         style="fill:#000000;fill-opacity:1;fill-rule:evenodd;stroke:#000000;stroke-width:0.218628;stroke-miterlimit:4;stroke-dasharray:none;stroke-opacity:1"
         id="path6182-0"
         cx="40.737911"
         cy="99.25499"
         rx="4.0707183"
         ry="4.0180697" />
      <text
         xml:space="preserve"
         style="font-style:normal;font-weight:normal;font-size:3.77679px;line-height:1.25;font-family:sans-serif;fill:#20b58c;fill-opacity:1;stroke:none;stroke-width:0.0944201"
         x="44.527428"
         y="89.574959"
         id="text14953"
         transform="scale(0.88844854,1.1255576)"><tspan
           sodipodi:role="line"
           id="tspan14951"
           style="fill:#20b58c;fill-opacity:1;stroke-width:0.0944201"
           x="44.527428"
           y="89.574959">A</tspan></text>
    </g>
    <g
       id="g1474"
       transform="translate(-11.119814,2.6266971)">
      <ellipse
         style="fill:#000000;fill-opacity:1;fill-rule:evenodd;stroke:#000000;stroke-width:0.218628;stroke-miterlimit:4;stroke-dasharray:none;stroke-opacity:1"
         id="path6182-08"
         cx="31.299847"
         cy="107.50069"
         rx="4.0707183"
         ry="4.0180697" />
      <text
         xml:space="preserve"
         style="font-style:normal;font-weight:normal;font-size:3.96792px;line-height:1.25;font-family:sans-serif;fill:#fa5f58;fill-opacity:1;stroke:none;stroke-width:0.0991993"
         x="32.773273"
         y="99.701408"
         id="text16761"
         transform="scale(0.91396326,1.0941359)"><tspan
           sodipodi:role="line"
           id="tspan16759"
           style="fill:#fa5f58;fill-opacity:1;stroke-width:0.0991993"
           x="32.773273"
           y="99.701408">B</tspan></text>
    </g>
    <ellipse
       style="fill:#ffffff;fill-opacity:1;fill-rule:evenodd;stroke:#000000;stroke-width:0.218628;stroke-miterlimit:4;stroke-dasharray:none;stroke-opacity:1"
       id="path6182-02"
       cx="45.394032"
       cy="118.52139"
       rx="4.0707183"
       ry="4.0180697" />
    <ellipse
       style="display:inline;fill:#ffffff;fill-opacity:1;fill-rule:evenodd;stroke:#000000;stroke-width:0.218628;stroke-miterlimit:4;stroke-dasharray:none;stroke-opacity:1"
       id="path6182-3-5"
       cx="37.000031"
       cy="118.52139"
       rx="4.0707183"
       ry="4.0180697" />
    <ellipse
       style="fill:#ffffff;fill-opacity:1;fill-rule:evenodd;stroke:#000000;stroke-width:0.218628;stroke-miterlimit:4;stroke-dasharray:none;stroke-opacity:1"
       id="path6182-0-9"
       cx="28.58003"
       cy="118.52139"
       rx="4.0707183"
       ry="4.0180697" />
    <ellipse
       style="fill:#ffffff;fill-opacity:1;fill-rule:evenodd;stroke:#000000;stroke-width:0.218628;stroke-miterlimit:4;stroke-dasharray:none;stroke-opacity:1"
       id="path6182-08-9"
       cx="20.180033"
       cy="118.52139"
       rx="4.0707183"
       ry="4.0180697" />
    <path
       style="fill:#ff5a5d;fill-opacity:1;stroke-width:0.25"
       d="M 15.368652,32.095703 C 7.5212012,32.270494 0.24134707,39.206656 0.44384765,47.202148 0.19608277,54.56627 6.366777,61.50579 13.634277,62.357422 c 3.978531,0.314408 8.224077,-0.303157 11.397949,-2.904785 5.485101,-4.009146 7.840429,-11.906226 4.877631,-18.130652 -2.40306,-5.632439 -8.44963,-9.377201 -14.541205,-9.226282 z"
       id="path29"
       transform="matrix(0.26458333,0,0,0.26458333,16,106)" />
    <path
       style="fill:#ff5a5d;fill-opacity:1;stroke-width:0.25"
       d="M 47.341308,32.101074 C 39.501289,32.141441 32.14819,38.949007 32.20166,46.92334 31.79471,54.385949 38.022037,61.496287 45.384277,62.357422 49.334993,62.658505 53.546894,62.08734 56.699219,59.48047 62.121507,55.724358 64.40235,48.216108 61.954102,42.084961 59.803442,36.060669 53.681143,32.034693 47.341308,32.101074 Z"
       id="path30"
       transform="matrix(0.26458333,0,0,0.26458333,16,106)" />
    <path
       style="fill:#ff5a5d;fill-opacity:1;stroke-width:0.25"
       d="m 78.983886,32.141113 c -8.544933,-0.08511 -15.959978,8.241866 -14.944824,16.716797 0.773352,7.703479 8.132922,14.271955 15.964844,13.580077 7.456935,-0.03235 14.062619,-6.430682 14.772949,-13.776366 C 95.52333,40.428104 88.513035,32.342348 80.192382,32.15918 79.789872,32.14047 79.38678,32.13404 78.983886,32.14111 Z"
       id="path31"
       transform="matrix(0.26458333,0,0,0.26458333,16,106)" />
    <path
       style="fill:#ff5a5d;fill-opacity:1;stroke-width:0.25"
       d="m 110.9541,32.149902 c -8.95703,-0.242114 -16.907072,8.904069 -15.009394,17.755807 0.750818,4.856517 4.164484,8.952368 8.524044,11.076223 3.37715,1.799685 7.4852,1.817143 11.12305,0.905763 6.58441,-2.037468 11.57131,-8.810149 10.83837,-15.78418 -0.47718,-7.700873 -7.76838,-14.271622 -15.47607,-13.953613 z"
       id="path32"
       transform="matrix(0.26458333,0,0,0.26458333,16,106)" />
  </g>
</svg>
