<?xml version="1.0" encoding="UTF-8" standalone="no"?>
<!-- Created with Inkscape (http://www.inkscape.org/) -->

<svg
   id="svg980"
   version="1.1"
   viewBox="0 0 33.574066 16.648777"
   height="16.648777mm"
   width="33.574066mm"
   sodipodi:docname="buttons.svg"
   inkscape:version="1.4.2 (f4327f4, 2025-05-13)"
   xmlns:inkscape="http://www.inkscape.org/namespaces/inkscape"
   xmlns:sodipodi="http://sodipodi.sourceforge.net/DTD/sodipodi-0.dtd"
   xmlns="http://www.w3.org/2000/svg"
   xmlns:svg="http://www.w3.org/2000/svg">
  <sodipodi:namedview
     id="namedview982"
     pagecolor="#ffffff"
     bordercolor="#666666"
     borderopacity="1.0"
     inkscape:pageshadow="2"
     inkscape:pageopacity="0.0"
     inkscape:pagecheckerboard="0"
     inkscape:document-units="mm"
     showgrid="true"
     inkscape:zoom="3.0421759"
     inkscape:cx="62.290941"
     inkscape:cy="-15.77818"
     inkscape:window-width="927"
     inkscape:window-height="1040"
     inkscape:window-x="2625"
     inkscape:window-y="152"
     inkscape:window-maximized="0"
     inkscape:current-layer="layer1"
     inkscape:showpageshadow="2"
     inkscape:deskcolor="#d1d1d1">
    <inkscape:grid
       type="xygrid"
       id="grid1491"
       originx="-35.138306"
       originy="-222.86351"
       spacingy="1"
       spacingx="1"
       units="mm" />
  </sodipodi:namedview>
  <defs
     id="defs977" />
  <g
     inkscape:label="Capa 1"
     inkscape:groupmode="layer"
     id="layer1"
     transform="translate(-16,-106)">
    <g
       id="g1489"
       transform="translate(23.500169,10.94868)">
      <ellipse
         style="fill:#000000;fill-opacity:1;fill-rule:evenodd;stroke:#000000;stroke-width:0.218628;stroke-miterlimit:4;stroke-dasharray:none;stroke-opacity:1"
         id="path6182"
         cx="21.893864"
         cy="99.178703"
         rx="4.0707183"
         ry="4.0180697" />
      <text
         xml:space="preserve"
         style="font-style:normal;font-weight:normal;font-size:4.14821px;line-height:1.25;font-family:sans-serif;fill:#45a2f1;fill-opacity:1;stroke:none;stroke-width:0.103706"
         x="21.618055"
         y="96.313072"
         id="text9949"
         transform="scale(0.95548821,1.0465854)"><tspan
           sodipodi:role="line"
           id="tspan9947"
           style="fill:#45a2f1;fill-opacity:1;stroke-width:0.103706"
           x="21.618055"
           y="96.313072">Y</tspan></text>
    </g>
    <g
       id="g1484"
       transform="translate(5.7001856,19.120693)">
      <ellipse
         style="display:inline;fill:#000000;fill-opacity:1;fill-rule:evenodd;stroke:#000000;stroke-width:0.218628;stroke-miterlimit:4;stroke-dasharray:none;stroke-opacity:1"
         id="path6182-3"
         cx="31.299847"
         cy="91.006691"
         rx="4.0707183"
         ry="4.0180697" />
      <text
         xml:space="preserve"
         style="font-style:normal;font-weight:normal;font-size:4.11002px;line-height:1.25;font-family:sans-serif;display:inline;fill:#ef7ded;fill-opacity:1;stroke:none;stroke-width:0.102751"
         x="31.666792"
         y="87.622726"
         id="text13027"
         transform="scale(0.94669294,1.0563087)"><tspan
           sodipodi:role="line"
           id="tspan13025"
           style="fill:#ef7ded;fill-opacity:1;stroke-width:0.102751"
           x="31.666792"
           y="87.622726">X</tspan></text>
    </g>
    <g
       id="g1479"
       transform="translate(-12.157879,10.872394)">
      <ellipse
         style="fill:#000000;fill-opacity:1;fill-rule:evenodd;stroke:#000000;stroke-width:0.218628;stroke-miterlimit:4;stroke-dasharray:none;stroke-opacity:1"
         id="path6182-0"
         cx="40.737911"
         cy="99.25499"
         rx="4.0707183"
         ry="4.0180697" />
      <text
         xml:space="preserve"
         style="font-style:normal;font-weight:normal;font-size:3.77679px;line-height:1.25;font-family:sans-serif;fill:#20b58c;fill-opacity:1;stroke:none;stroke-width:0.0944201"
         x="44.527428"
         y="89.574959"
         id="text14953"
         transform="scale(0.88844854,1.1255576)"><tspan
           sodipodi:role="line"
           id="tspan14951"
           style="fill:#20b58c;fill-opacity:1;stroke-width:0.0944201"
           x="44.527428"
           y="89.574959">A</tspan></text>
    </g>
    <g
       id="g1474"
       transform="translate(-11.119814,2.6266971)">
      <ellipse
         style="fill:#000000;fill-opacity:1;fill-rule:evenodd;stroke:#000000;stroke-width:0.218628;stroke-miterlimit:4;stroke-dasharray:none;stroke-opacity:1"
         id="path6182-08"
         cx="31.299847"
         cy="107.50069"
         rx="4.0707183"
         ry="4.0180697" />
      <text
         xml:space="preserve"
         style="font-style:normal;font-weight:normal;font-size:3.96792px;line-height:1.25;font-family:sans-serif;fill:#fa5f58;fill-opacity:1;stroke:none;stroke-width:0.0991993"
         x="32.773273"
         y="99.701408"
         id="text16761"
         transform="scale(0.91396326,1.0941359)"><tspan
           sodipodi:role="line"
           id="tspan16759"
           style="fill:#fa5f58;fill-opacity:1;stroke-width:0.0991993"
           x="32.773273"
           y="99.701408">B</tspan></text>
    </g>
    <ellipse
       style="fill:#ffffff;fill-opacity:1;fill-rule:evenodd;stroke:#000000;stroke-width:0.218628;stroke-miterlimit:4;stroke-dasharray:none;stroke-opacity:1"
       id="path6182-02"
       cx="45.394032"
       cy="118.52139"
       rx="4.0707183"
       ry="4.0180697" />
    <ellipse
       style="display:inline;fill:#ffffff;fill-opacity:1;fill-rule:evenodd;stroke:#000000;stroke-width:0.218628;stroke-miterlimit:4;stroke-dasharray:none;stroke-opacity:1"
       id="path6182-3-5"
       cx="37.000031"
       cy="118.52139"
       rx="4.0707183"
       ry="4.0180697" />
    <ellipse
       style="fill:#ffffff;fill-opacity:1;fill-rule:evenodd;stroke:#000000;stroke-width:0.218628;stroke-miterlimit:4;stroke-dasharray:none;stroke-opacity:1"
       id="path6182-0-9"
       cx="28.58003"
       cy="118.52139"
       rx="4.0707183"
       ry="4.0180697" />
    <ellipse
       style="fill:#ffffff;fill-opacity:1;fill-rule:evenodd;stroke:#000000;stroke-width:0.218628;stroke-miterlimit:4;stroke-dasharray:none;stroke-opacity:1"
       id="path6182-08-9"
       cx="20.180033"
       cy="118.52139"
       rx="4.0707183"
       ry="4.0180697" />
    <path
       style="fill:#ae2d33;fill-opacity:1;stroke-width:0.328712"
       d="M 12.249308,61.455489 C 6.7120914,59.964249 2.5226614,55.632285 1.3589282,50.194592 -0.35750174,42.174353 5.1829938,34.3882 13.636933,32.940101 c 8.520575,-1.459512 16.933291,5.691864 16.933291,14.39444 0,9.288333 -9.390408,16.526042 -18.320916,14.120948 z"
       id="path23"
       transform="matrix(0.26458333,0,0,0.26458333,16,106)" />
    <path
       style="fill:#ae2d33;fill-opacity:1;stroke-width:0.328712"
       d="m 44.19815,61.503714 c -4.289964,-1.042223 -7.93418,-3.98701 -9.929072,-8.0234 -1.200582,-2.429212 -1.233513,-2.592832 -1.233513,-6.128725 0,-3.408745 0.0652,-3.770537 1.056828,-5.864049 2.866718,-6.052193 9.449474,-9.620182 15.755779,-8.539958 7.934297,1.359088 13.603678,8.995061 12.288796,16.55153 -1.465172,8.420172 -9.782535,13.986125 -17.938818,12.004602 z"
       id="path24"
       transform="matrix(0.26458333,0,0,0.26458333,16,106)" />
    <path
       style="fill:#ae2d33;fill-opacity:1;stroke-width:0.328712"
       d="M 75.60378,61.365851 C 64.778497,58.536301 60.998325,45.082782 68.828451,37.252657 c 5.897439,-5.89744 14.981921,-6.033267 20.786391,-0.310789 3.092064,3.048387 4.396815,6.144014 4.396815,10.431802 0,6.765966 -4.575872,12.519475 -11.198455,14.080466 -2.691495,0.634404 -4.530729,0.611881 -7.209422,-0.08828 z"
       id="path25"
       transform="matrix(0.26458333,0,0,0.26458333,16,106)" />
    <path
       style="fill:#ae2d33;fill-opacity:1;stroke-width:0.328712"
       d="M 107.57581,61.455489 C 99.495648,59.279402 94.790049,51.511912 96.822803,43.705592 c 1.852062,-7.112413 9.315627,-11.982955 16.481577,-10.75548 11.94635,2.046325 16.71165,16.046579 8.32349,24.454084 -3.80258,3.81135 -9.18306,5.362573 -14.05206,4.051293 z"
       id="path26"
       transform="matrix(0.26458333,0,0,0.26458333,16,106)" />
  </g>
</svg>
